<mxfile host="app.diagrams.net" modified="2022-04-22T04:37:01.477Z" agent="5.0 (Windows NT 10.0; Win64; x64) AppleWebKit/537.36 (KHTML, like Gecko) Chrome/100.0.4896.88 Safari/537.36" etag="oqCQuFI_9kYwavqCMPv8" version="17.4.6" type="github" pages="10">
  <diagram id="4xImqGDjGNgH0PnMTD41" name="Page-1">
    <mxGraphModel dx="2391" dy="950" grid="1" gridSize="10" guides="1" tooltips="1" connect="1" arrows="1" fold="1" page="1" pageScale="1" pageWidth="827" pageHeight="1169" math="0" shadow="0">
      <root>
        <mxCell id="0" />
        <mxCell id="1" parent="0" />
        <mxCell id="ILuE6j1-GecGomHEctrX-1" value="" style="strokeWidth=1;shadow=0;dashed=0;align=center;html=1;shape=mxgraph.mockup.containers.browserWindow;rSize=0;strokeColor=#666666;strokeColor2=#008cff;strokeColor3=#c4c4c4;mainText=,;recursiveResize=0;" vertex="1" parent="1">
          <mxGeometry x="-827" y="200" width="2457" height="2570" as="geometry" />
        </mxCell>
        <mxCell id="ILuE6j1-GecGomHEctrX-2" value="Page 1" style="strokeWidth=1;shadow=0;dashed=0;align=center;html=1;shape=mxgraph.mockup.containers.anchor;fontSize=17;fontColor=#666666;align=left;" vertex="1" parent="ILuE6j1-GecGomHEctrX-1">
          <mxGeometry x="60" y="12" width="110" height="26" as="geometry" />
        </mxCell>
        <mxCell id="ILuE6j1-GecGomHEctrX-3" value="http://localhost:44308" style="strokeWidth=1;shadow=0;dashed=0;align=center;html=1;shape=mxgraph.mockup.containers.anchor;rSize=0;fontSize=17;fontColor=#666666;align=left;" vertex="1" parent="ILuE6j1-GecGomHEctrX-1">
          <mxGeometry x="130" y="60" width="250" height="26" as="geometry" />
        </mxCell>
        <mxCell id="ILuE6j1-GecGomHEctrX-4" value="AMC" style="html=1;shadow=0;dashed=0;shape=mxgraph.bootstrap.rrect;rSize=5;fillColor=#0085FC;strokeColor=none;fontSize=14;fontColor=#ffffff;sketch=0;" vertex="1" parent="ILuE6j1-GecGomHEctrX-1">
          <mxGeometry x="20" y="120" width="70" height="40" as="geometry" />
        </mxCell>
        <mxCell id="ILuE6j1-GecGomHEctrX-5" value="Login" style="strokeColor=none;fillColor=none;rSize=5;perimeter=none;whiteSpace=wrap;resizeWidth=1;align=center;spacing=20;fontSize=14;fontColor=#0085FC;spacingRight=10;" vertex="1" parent="ILuE6j1-GecGomHEctrX-1">
          <mxGeometry x="190" y="120" width="100" height="40" as="geometry" />
        </mxCell>
        <mxCell id="ILuE6j1-GecGomHEctrX-6" value="" style="shape=triangle;direction=south;fillColor=#0085FC;strokeColor=none;perimeter=none;sketch=0;" vertex="1" parent="ILuE6j1-GecGomHEctrX-5">
          <mxGeometry x="1" y="0.5" width="10" height="5" relative="1" as="geometry">
            <mxPoint x="-17" y="-2.5" as="offset" />
          </mxGeometry>
        </mxCell>
        <mxCell id="ILuE6j1-GecGomHEctrX-7" value="Home" style="fillColor=none;strokeColor=none;fontSize=14;fontColor=#0085FC;" vertex="1" parent="ILuE6j1-GecGomHEctrX-1">
          <mxGeometry x="120" y="120" width="50" height="40" as="geometry" />
        </mxCell>
        <mxCell id="ILuE6j1-GecGomHEctrX-9" value="Registration" style="strokeColor=none;fillColor=none;rSize=5;perimeter=none;whiteSpace=wrap;resizeWidth=1;align=center;spacing=20;fontSize=14;fontColor=#0085FC;spacingRight=10;" vertex="1" parent="ILuE6j1-GecGomHEctrX-1">
          <mxGeometry x="290" y="120" width="100" height="40" as="geometry" />
        </mxCell>
        <mxCell id="ILuE6j1-GecGomHEctrX-10" value="" style="shape=triangle;direction=south;fillColor=#0085FC;strokeColor=none;perimeter=none;sketch=0;" vertex="1" parent="ILuE6j1-GecGomHEctrX-9">
          <mxGeometry x="1" y="0.5" width="10" height="5" relative="1" as="geometry">
            <mxPoint x="-17" y="-2.5" as="offset" />
          </mxGeometry>
        </mxCell>
        <mxCell id="ILuE6j1-GecGomHEctrX-11" value="" style="rounded=1;whiteSpace=wrap;html=1;" vertex="1" parent="ILuE6j1-GecGomHEctrX-1">
          <mxGeometry x="627" y="360" width="1273" height="700" as="geometry" />
        </mxCell>
        <mxCell id="ILuE6j1-GecGomHEctrX-12" value="" style="rounded=0;whiteSpace=wrap;html=1;" vertex="1" parent="ILuE6j1-GecGomHEctrX-1">
          <mxGeometry x="197" y="1160" width="2010" height="380" as="geometry" />
        </mxCell>
        <mxCell id="ILuE6j1-GecGomHEctrX-13" value="Lorem ipsum dolor sit amet, consectetur adipisicing elit, sed do eiusmod tempor incididunt ut labore et dolore magna aliqua. Ut enim ad minim veniam, quis nostrud exercitation ullamco laboris nisi ut aliquip ex ea commodo consequat. Duis aute irure dolor in reprehenderit in voluptate velit esse cillum dolore eu fugiat nulla pariatur. Excepteur sint occaecat cupidatat non proident, sunt in culpa qui officia deserunt mollit anim id est laborum.&#xa;Sed ut perspiciatis unde omnis iste natus error sit voluptatem accusantium doloremque laudantium, totam rem aperiam, eaque ipsa quae ab illo inventore veritatis et quasi architecto beatae vitae dicta sunt explicabo. Nemo enim ipsam voluptatem quia voluptas sit aspernatur aut odit aut fugit, sed quia consequuntur magni dolores eos qui ratione voluptatem sequi nesciunt. Neque porro quisquam est, qui dolorem ipsum quia dolor sit amet, consectetur, adipisci velit, sed quia non numquam eius modi tempora incidunt ut labore et dolore magnam aliquam quaerat voluptatem. Ut enim ad minima veniam, quis nostrum exercitationem ullam corporis suscipit laboriosam, nisi ut aliquid ex ea commodi consequatur? Quis autem vel eum iure reprehenderit qui in ea voluptate velit esse quam nihil molestiae consequatur, vel illum qui dolorem eum fugiat quo voluptas nulla pariatur?" style="text;spacingTop=-5;whiteSpace=wrap;html=1;align=left;fontSize=12;fontFamily=Helvetica;fillColor=none;strokeColor=none;" vertex="1" parent="ILuE6j1-GecGomHEctrX-1">
          <mxGeometry x="257" y="1170" width="1383" height="140" as="geometry" />
        </mxCell>
        <mxCell id="ILuE6j1-GecGomHEctrX-14" value="" style="rounded=0;whiteSpace=wrap;html=1;" vertex="1" parent="ILuE6j1-GecGomHEctrX-1">
          <mxGeometry x="197" y="1580" width="2010" height="380" as="geometry" />
        </mxCell>
        <mxCell id="ILuE6j1-GecGomHEctrX-15" value="Lorem ipsum dolor sit amet, consectetur adipisicing elit, sed do eiusmod tempor incididunt ut labore et dolore magna aliqua. Ut enim ad minim veniam, quis nostrud exercitation ullamco laboris nisi ut aliquip ex ea commodo consequat. Duis aute irure dolor in reprehenderit in voluptate velit esse cillum dolore eu fugiat nulla pariatur. Excepteur sint occaecat cupidatat non proident, sunt in culpa qui officia deserunt mollit anim id est laborum.&#xa;Sed ut perspiciatis unde omnis iste natus error sit voluptatem accusantium doloremque laudantium, totam rem aperiam, eaque ipsa quae ab illo inventore veritatis et quasi architecto beatae vitae dicta sunt explicabo. Nemo enim ipsam voluptatem quia voluptas sit aspernatur aut odit aut fugit, sed quia consequuntur magni dolores eos qui ratione voluptatem sequi nesciunt. Neque porro quisquam est, qui dolorem ipsum quia dolor sit amet, consectetur, adipisci velit, sed quia non numquam eius modi tempora incidunt ut labore et dolore magnam aliquam quaerat voluptatem. Ut enim ad minima veniam, quis nostrum exercitationem ullam corporis suscipit laboriosam, nisi ut aliquid ex ea commodi consequatur? Quis autem vel eum iure reprehenderit qui in ea voluptate velit esse quam nihil molestiae consequatur, vel illum qui dolorem eum fugiat quo voluptas nulla pariatur?" style="text;spacingTop=-5;whiteSpace=wrap;html=1;align=left;fontSize=12;fontFamily=Helvetica;fillColor=none;strokeColor=none;" vertex="1" parent="ILuE6j1-GecGomHEctrX-1">
          <mxGeometry x="290" y="1600" width="1383" height="140" as="geometry" />
        </mxCell>
        <mxCell id="ILuE6j1-GecGomHEctrX-16" value="" style="rounded=0;whiteSpace=wrap;html=1;" vertex="1" parent="ILuE6j1-GecGomHEctrX-1">
          <mxGeometry x="197" y="2060" width="2010" height="380" as="geometry" />
        </mxCell>
        <mxCell id="ILuE6j1-GecGomHEctrX-17" value="Team Names And Discription" style="text;html=1;strokeColor=none;fillColor=none;align=center;verticalAlign=middle;whiteSpace=wrap;rounded=0;" vertex="1" parent="ILuE6j1-GecGomHEctrX-1">
          <mxGeometry x="357" y="2130" width="473" height="180" as="geometry" />
        </mxCell>
        <mxCell id="ILuE6j1-GecGomHEctrX-19" value="" style="edgeStyle=orthogonalEdgeStyle;rounded=0;orthogonalLoop=1;jettySize=auto;html=1;fontSize=44;" edge="1" parent="1" source="ILuE6j1-GecGomHEctrX-18" target="ILuE6j1-GecGomHEctrX-1">
          <mxGeometry relative="1" as="geometry" />
        </mxCell>
        <mxCell id="ILuE6j1-GecGomHEctrX-18" value="&lt;font style=&quot;font-size: 44px&quot;&gt;Home Page&lt;/font&gt;" style="text;html=1;strokeColor=none;fillColor=none;align=center;verticalAlign=middle;whiteSpace=wrap;rounded=0;" vertex="1" parent="1">
          <mxGeometry x="93" y="140" width="640" height="30" as="geometry" />
        </mxCell>
      </root>
    </mxGraphModel>
  </diagram>
  <diagram id="N0CMMgT2g6NF475W8AvU" name="Login">
    <mxGraphModel dx="3392" dy="929" grid="1" gridSize="10" guides="1" tooltips="1" connect="1" arrows="1" fold="1" page="1" pageScale="1" pageWidth="827" pageHeight="1169" math="0" shadow="0">
      <root>
        <mxCell id="0" />
        <mxCell id="1" parent="0" />
        <mxCell id="uqM2bJTElSSMe0Jwz6nM-1" value="" style="strokeWidth=1;shadow=0;dashed=0;align=center;html=1;shape=mxgraph.mockup.containers.browserWindow;rSize=0;strokeColor=#666666;strokeColor2=#008cff;strokeColor3=#c4c4c4;mainText=,;recursiveResize=0;fontSize=44;" vertex="1" parent="1">
          <mxGeometry x="-920" y="190" width="860" height="520" as="geometry" />
        </mxCell>
        <mxCell id="uqM2bJTElSSMe0Jwz6nM-2" value="Page 1" style="strokeWidth=1;shadow=0;dashed=0;align=center;html=1;shape=mxgraph.mockup.containers.anchor;fontSize=17;fontColor=#666666;align=left;" vertex="1" parent="uqM2bJTElSSMe0Jwz6nM-1">
          <mxGeometry x="60" y="12" width="110" height="26" as="geometry" />
        </mxCell>
        <mxCell id="uqM2bJTElSSMe0Jwz6nM-3" value="http://localhost:44308/account/login" style="strokeWidth=1;shadow=0;dashed=0;align=center;html=1;shape=mxgraph.mockup.containers.anchor;rSize=0;fontSize=17;fontColor=#666666;align=left;" vertex="1" parent="uqM2bJTElSSMe0Jwz6nM-1">
          <mxGeometry x="130" y="60" width="300" height="26" as="geometry" />
        </mxCell>
        <mxCell id="-ls-t90d0aNsBJu-3VZQ-2" value="Login" style="strokeColor=none;fillColor=none;rSize=5;perimeter=none;whiteSpace=wrap;resizeWidth=1;align=center;spacing=20;fontSize=14;fontColor=#0085FC;spacingRight=10;" vertex="1" parent="uqM2bJTElSSMe0Jwz6nM-1">
          <mxGeometry x="170" y="130" width="100" height="40" as="geometry" />
        </mxCell>
        <mxCell id="-ls-t90d0aNsBJu-3VZQ-3" value="" style="shape=triangle;direction=south;fillColor=#0085FC;strokeColor=none;perimeter=none;sketch=0;" vertex="1" parent="-ls-t90d0aNsBJu-3VZQ-2">
          <mxGeometry x="1" y="0.5" width="10" height="5" relative="1" as="geometry">
            <mxPoint x="-17" y="-2.5" as="offset" />
          </mxGeometry>
        </mxCell>
        <mxCell id="SE7e962XQVtTV1F9VRxh-1" value="" style="strokeWidth=1;shadow=0;dashed=0;align=center;html=1;shape=mxgraph.mockup.forms.rrect;rSize=0;strokeColor=#999999;fillColor=#ffffff;fontSize=44;" vertex="1" parent="uqM2bJTElSSMe0Jwz6nM-1">
          <mxGeometry x="93" y="200" width="200" height="300" as="geometry" />
        </mxCell>
        <mxCell id="SE7e962XQVtTV1F9VRxh-2" value="Sign In" style="strokeWidth=1;shadow=0;dashed=0;align=center;html=1;shape=mxgraph.mockup.forms.anchor;fontSize=12;fontColor=#666666;align=left;resizeWidth=1;spacingLeft=0;" vertex="1" parent="SE7e962XQVtTV1F9VRxh-1">
          <mxGeometry width="100" height="20" relative="1" as="geometry">
            <mxPoint x="10" y="10" as="offset" />
          </mxGeometry>
        </mxCell>
        <mxCell id="SE7e962XQVtTV1F9VRxh-3" value="" style="shape=line;strokeColor=#ddeeff;strokeWidth=2;html=1;resizeWidth=1;fontSize=44;" vertex="1" parent="SE7e962XQVtTV1F9VRxh-1">
          <mxGeometry width="180" height="10" relative="1" as="geometry">
            <mxPoint x="10" y="30" as="offset" />
          </mxGeometry>
        </mxCell>
        <mxCell id="SE7e962XQVtTV1F9VRxh-4" value="User Name:" style="strokeWidth=1;shadow=0;dashed=0;align=center;html=1;shape=mxgraph.mockup.forms.anchor;fontSize=12;fontColor=#666666;align=left;resizeWidth=1;spacingLeft=0;" vertex="1" parent="SE7e962XQVtTV1F9VRxh-1">
          <mxGeometry width="100" height="20" relative="1" as="geometry">
            <mxPoint x="10" y="40" as="offset" />
          </mxGeometry>
        </mxCell>
        <mxCell id="SE7e962XQVtTV1F9VRxh-5" value="johndoe" style="strokeWidth=1;shadow=0;dashed=0;align=center;html=1;shape=mxgraph.mockup.forms.rrect;rSize=0;strokeColor=#999999;fontColor=#666666;align=left;spacingLeft=5;resizeWidth=1;fontSize=44;" vertex="1" parent="SE7e962XQVtTV1F9VRxh-1">
          <mxGeometry width="150" height="25" relative="1" as="geometry">
            <mxPoint x="10" y="70" as="offset" />
          </mxGeometry>
        </mxCell>
        <mxCell id="SE7e962XQVtTV1F9VRxh-6" value="Password:" style="strokeWidth=1;shadow=0;dashed=0;align=center;html=1;shape=mxgraph.mockup.forms.anchor;fontSize=12;fontColor=#666666;align=left;resizeWidth=1;spacingLeft=0;" vertex="1" parent="SE7e962XQVtTV1F9VRxh-1">
          <mxGeometry width="100" height="20" relative="1" as="geometry">
            <mxPoint x="10" y="95" as="offset" />
          </mxGeometry>
        </mxCell>
        <mxCell id="SE7e962XQVtTV1F9VRxh-7" value="********" style="strokeWidth=1;shadow=0;dashed=0;align=center;html=1;shape=mxgraph.mockup.forms.rrect;rSize=0;strokeColor=#999999;fontColor=#666666;align=left;spacingLeft=5;resizeWidth=1;fontSize=44;" vertex="1" parent="SE7e962XQVtTV1F9VRxh-1">
          <mxGeometry width="150" height="25" relative="1" as="geometry">
            <mxPoint x="10" y="115" as="offset" />
          </mxGeometry>
        </mxCell>
        <mxCell id="SE7e962XQVtTV1F9VRxh-8" value="SIGN IN" style="strokeWidth=1;shadow=0;dashed=0;align=center;html=1;shape=mxgraph.mockup.forms.rrect;rSize=5;strokeColor=none;fontColor=#ffffff;fillColor=#66bbff;fontSize=16;fontStyle=1;" vertex="1" parent="SE7e962XQVtTV1F9VRxh-1">
          <mxGeometry y="1" width="80" height="30" relative="1" as="geometry">
            <mxPoint x="20" y="-150" as="offset" />
          </mxGeometry>
        </mxCell>
        <mxCell id="SE7e962XQVtTV1F9VRxh-9" value="Forgot Password?" style="strokeWidth=1;shadow=0;dashed=0;align=center;html=1;shape=mxgraph.mockup.forms.anchor;fontSize=12;fontColor=#9999ff;align=left;spacingLeft=0;fontStyle=4;resizeWidth=1;" vertex="1" parent="SE7e962XQVtTV1F9VRxh-1">
          <mxGeometry y="1" width="150" height="20" relative="1" as="geometry">
            <mxPoint x="10" y="-110" as="offset" />
          </mxGeometry>
        </mxCell>
        <mxCell id="SE7e962XQVtTV1F9VRxh-10" value="" style="shape=line;strokeColor=#ddeeff;strokeWidth=2;html=1;resizeWidth=1;fontSize=44;" vertex="1" parent="SE7e962XQVtTV1F9VRxh-1">
          <mxGeometry y="1" width="180" height="10" relative="1" as="geometry">
            <mxPoint x="10" y="-90" as="offset" />
          </mxGeometry>
        </mxCell>
        <mxCell id="SE7e962XQVtTV1F9VRxh-11" value="New User" style="strokeWidth=1;shadow=0;dashed=0;align=center;html=1;shape=mxgraph.mockup.forms.anchor;fontSize=12;fontColor=#666666;align=left;spacingLeft=0;resizeWidth=1;" vertex="1" parent="SE7e962XQVtTV1F9VRxh-1">
          <mxGeometry y="1" width="150" height="20" relative="1" as="geometry">
            <mxPoint x="10" y="-70" as="offset" />
          </mxGeometry>
        </mxCell>
        <mxCell id="SE7e962XQVtTV1F9VRxh-12" value="SIGN UP" style="strokeWidth=1;shadow=0;dashed=0;align=center;html=1;shape=mxgraph.mockup.forms.rrect;rSize=5;strokeColor=none;fontColor=#ffffff;fillColor=#66bbff;fontSize=16;fontStyle=1;" vertex="1" parent="SE7e962XQVtTV1F9VRxh-1">
          <mxGeometry y="1" width="80" height="30" relative="1" as="geometry">
            <mxPoint x="20" y="-50" as="offset" />
          </mxGeometry>
        </mxCell>
        <mxCell id="-ls-t90d0aNsBJu-3VZQ-1" value="AMC" style="html=1;shadow=0;dashed=0;shape=mxgraph.bootstrap.rrect;rSize=5;fillColor=#0085FC;strokeColor=none;fontSize=14;fontColor=#ffffff;sketch=0;" vertex="1" parent="uqM2bJTElSSMe0Jwz6nM-1">
          <mxGeometry x="23" y="130" width="70" height="40" as="geometry" />
        </mxCell>
        <mxCell id="-ls-t90d0aNsBJu-3VZQ-4" value="Home" style="fillColor=none;strokeColor=none;fontSize=14;fontColor=#0085FC;" vertex="1" parent="uqM2bJTElSSMe0Jwz6nM-1">
          <mxGeometry x="110" y="130" width="50" height="40" as="geometry" />
        </mxCell>
        <mxCell id="-ls-t90d0aNsBJu-3VZQ-5" value="Registration" style="strokeColor=none;fillColor=none;rSize=5;perimeter=none;whiteSpace=wrap;resizeWidth=1;align=center;spacing=20;fontSize=14;fontColor=#0085FC;spacingRight=10;" vertex="1" parent="uqM2bJTElSSMe0Jwz6nM-1">
          <mxGeometry x="300" y="130" width="100" height="40" as="geometry" />
        </mxCell>
        <mxCell id="-ls-t90d0aNsBJu-3VZQ-6" value="" style="shape=triangle;direction=south;fillColor=#0085FC;strokeColor=none;perimeter=none;sketch=0;" vertex="1" parent="-ls-t90d0aNsBJu-3VZQ-5">
          <mxGeometry x="1" y="0.5" width="10" height="5" relative="1" as="geometry">
            <mxPoint x="-17" y="-2.5" as="offset" />
          </mxGeometry>
        </mxCell>
        <mxCell id="ySKC0SprMIVLpZiQ1126-2" value="" style="edgeStyle=orthogonalEdgeStyle;rounded=0;orthogonalLoop=1;jettySize=auto;html=1;fontSize=44;" edge="1" parent="1" source="ySKC0SprMIVLpZiQ1126-1" target="uqM2bJTElSSMe0Jwz6nM-1">
          <mxGeometry relative="1" as="geometry" />
        </mxCell>
        <mxCell id="ySKC0SprMIVLpZiQ1126-1" value="&lt;font style=&quot;font-size: 44px&quot;&gt;Admin Login Page&lt;/font&gt;" style="text;html=1;strokeColor=none;fillColor=none;align=center;verticalAlign=middle;whiteSpace=wrap;rounded=0;" vertex="1" parent="1">
          <mxGeometry x="-827" y="100" width="640" height="30" as="geometry" />
        </mxCell>
      </root>
    </mxGraphModel>
  </diagram>
  <diagram id="IHgqg-w_PpnIStVn1sqF" name="Page-3">
    <mxGraphModel dx="3218" dy="836" grid="1" gridSize="10" guides="1" tooltips="1" connect="1" arrows="1" fold="1" page="1" pageScale="1" pageWidth="827" pageHeight="1169" math="0" shadow="0">
      <root>
        <mxCell id="0" />
        <mxCell id="1" parent="0" />
        <mxCell id="YO6Z3mdkmXWNWB0Maegm-1" value="" style="strokeWidth=1;shadow=0;dashed=0;align=center;html=1;shape=mxgraph.mockup.containers.browserWindow;rSize=0;strokeColor=#666666;strokeColor2=#008cff;strokeColor3=#c4c4c4;mainText=,;recursiveResize=0;fontSize=44;" vertex="1" parent="1">
          <mxGeometry x="-920" y="190" width="860" height="520" as="geometry" />
        </mxCell>
        <mxCell id="YO6Z3mdkmXWNWB0Maegm-2" value="Page 1" style="strokeWidth=1;shadow=0;dashed=0;align=center;html=1;shape=mxgraph.mockup.containers.anchor;fontSize=17;fontColor=#666666;align=left;" vertex="1" parent="YO6Z3mdkmXWNWB0Maegm-1">
          <mxGeometry x="60" y="12" width="110" height="26" as="geometry" />
        </mxCell>
        <mxCell id="YO6Z3mdkmXWNWB0Maegm-3" value="http://localhost:44308/account/Ulogin" style="strokeWidth=1;shadow=0;dashed=0;align=center;html=1;shape=mxgraph.mockup.containers.anchor;rSize=0;fontSize=17;fontColor=#666666;align=left;" vertex="1" parent="YO6Z3mdkmXWNWB0Maegm-1">
          <mxGeometry x="130" y="60" width="300" height="26" as="geometry" />
        </mxCell>
        <mxCell id="YO6Z3mdkmXWNWB0Maegm-4" value="Login" style="strokeColor=none;fillColor=none;rSize=5;perimeter=none;whiteSpace=wrap;resizeWidth=1;align=center;spacing=20;fontSize=14;fontColor=#0085FC;spacingRight=10;" vertex="1" parent="YO6Z3mdkmXWNWB0Maegm-1">
          <mxGeometry x="170" y="130" width="100" height="40" as="geometry" />
        </mxCell>
        <mxCell id="YO6Z3mdkmXWNWB0Maegm-5" value="" style="shape=triangle;direction=south;fillColor=#0085FC;strokeColor=none;perimeter=none;sketch=0;" vertex="1" parent="YO6Z3mdkmXWNWB0Maegm-4">
          <mxGeometry x="1" y="0.5" width="10" height="5" relative="1" as="geometry">
            <mxPoint x="-17" y="-2.5" as="offset" />
          </mxGeometry>
        </mxCell>
        <mxCell id="YO6Z3mdkmXWNWB0Maegm-6" value="" style="strokeWidth=1;shadow=0;dashed=0;align=center;html=1;shape=mxgraph.mockup.forms.rrect;rSize=0;strokeColor=#999999;fillColor=#ffffff;fontSize=44;" vertex="1" parent="YO6Z3mdkmXWNWB0Maegm-1">
          <mxGeometry x="93" y="200" width="200" height="300" as="geometry" />
        </mxCell>
        <mxCell id="YO6Z3mdkmXWNWB0Maegm-7" value="Sign In" style="strokeWidth=1;shadow=0;dashed=0;align=center;html=1;shape=mxgraph.mockup.forms.anchor;fontSize=12;fontColor=#666666;align=left;resizeWidth=1;spacingLeft=0;" vertex="1" parent="YO6Z3mdkmXWNWB0Maegm-6">
          <mxGeometry width="100" height="20" relative="1" as="geometry">
            <mxPoint x="10" y="10" as="offset" />
          </mxGeometry>
        </mxCell>
        <mxCell id="YO6Z3mdkmXWNWB0Maegm-8" value="" style="shape=line;strokeColor=#ddeeff;strokeWidth=2;html=1;resizeWidth=1;fontSize=44;" vertex="1" parent="YO6Z3mdkmXWNWB0Maegm-6">
          <mxGeometry width="180" height="10" relative="1" as="geometry">
            <mxPoint x="10" y="30" as="offset" />
          </mxGeometry>
        </mxCell>
        <mxCell id="YO6Z3mdkmXWNWB0Maegm-9" value="User Name:" style="strokeWidth=1;shadow=0;dashed=0;align=center;html=1;shape=mxgraph.mockup.forms.anchor;fontSize=12;fontColor=#666666;align=left;resizeWidth=1;spacingLeft=0;" vertex="1" parent="YO6Z3mdkmXWNWB0Maegm-6">
          <mxGeometry width="100" height="20" relative="1" as="geometry">
            <mxPoint x="10" y="40" as="offset" />
          </mxGeometry>
        </mxCell>
        <mxCell id="YO6Z3mdkmXWNWB0Maegm-10" value="johndoe" style="strokeWidth=1;shadow=0;dashed=0;align=center;html=1;shape=mxgraph.mockup.forms.rrect;rSize=0;strokeColor=#999999;fontColor=#666666;align=left;spacingLeft=5;resizeWidth=1;fontSize=44;" vertex="1" parent="YO6Z3mdkmXWNWB0Maegm-6">
          <mxGeometry width="150" height="25" relative="1" as="geometry">
            <mxPoint x="10" y="70" as="offset" />
          </mxGeometry>
        </mxCell>
        <mxCell id="YO6Z3mdkmXWNWB0Maegm-11" value="Password:" style="strokeWidth=1;shadow=0;dashed=0;align=center;html=1;shape=mxgraph.mockup.forms.anchor;fontSize=12;fontColor=#666666;align=left;resizeWidth=1;spacingLeft=0;" vertex="1" parent="YO6Z3mdkmXWNWB0Maegm-6">
          <mxGeometry width="100" height="20" relative="1" as="geometry">
            <mxPoint x="10" y="95" as="offset" />
          </mxGeometry>
        </mxCell>
        <mxCell id="YO6Z3mdkmXWNWB0Maegm-12" value="********" style="strokeWidth=1;shadow=0;dashed=0;align=center;html=1;shape=mxgraph.mockup.forms.rrect;rSize=0;strokeColor=#999999;fontColor=#666666;align=left;spacingLeft=5;resizeWidth=1;fontSize=44;" vertex="1" parent="YO6Z3mdkmXWNWB0Maegm-6">
          <mxGeometry width="150" height="25" relative="1" as="geometry">
            <mxPoint x="10" y="115" as="offset" />
          </mxGeometry>
        </mxCell>
        <mxCell id="YO6Z3mdkmXWNWB0Maegm-13" value="SIGN IN" style="strokeWidth=1;shadow=0;dashed=0;align=center;html=1;shape=mxgraph.mockup.forms.rrect;rSize=5;strokeColor=none;fontColor=#ffffff;fillColor=#66bbff;fontSize=16;fontStyle=1;" vertex="1" parent="YO6Z3mdkmXWNWB0Maegm-6">
          <mxGeometry y="1" width="80" height="30" relative="1" as="geometry">
            <mxPoint x="20" y="-150" as="offset" />
          </mxGeometry>
        </mxCell>
        <mxCell id="YO6Z3mdkmXWNWB0Maegm-14" value="Forgot Password?" style="strokeWidth=1;shadow=0;dashed=0;align=center;html=1;shape=mxgraph.mockup.forms.anchor;fontSize=12;fontColor=#9999ff;align=left;spacingLeft=0;fontStyle=4;resizeWidth=1;" vertex="1" parent="YO6Z3mdkmXWNWB0Maegm-6">
          <mxGeometry y="1" width="150" height="20" relative="1" as="geometry">
            <mxPoint x="10" y="-110" as="offset" />
          </mxGeometry>
        </mxCell>
        <mxCell id="YO6Z3mdkmXWNWB0Maegm-15" value="" style="shape=line;strokeColor=#ddeeff;strokeWidth=2;html=1;resizeWidth=1;fontSize=44;" vertex="1" parent="YO6Z3mdkmXWNWB0Maegm-6">
          <mxGeometry y="1" width="180" height="10" relative="1" as="geometry">
            <mxPoint x="10" y="-90" as="offset" />
          </mxGeometry>
        </mxCell>
        <mxCell id="YO6Z3mdkmXWNWB0Maegm-16" value="New User" style="strokeWidth=1;shadow=0;dashed=0;align=center;html=1;shape=mxgraph.mockup.forms.anchor;fontSize=12;fontColor=#666666;align=left;spacingLeft=0;resizeWidth=1;" vertex="1" parent="YO6Z3mdkmXWNWB0Maegm-6">
          <mxGeometry y="1" width="150" height="20" relative="1" as="geometry">
            <mxPoint x="10" y="-70" as="offset" />
          </mxGeometry>
        </mxCell>
        <mxCell id="YO6Z3mdkmXWNWB0Maegm-17" value="SIGN UP" style="strokeWidth=1;shadow=0;dashed=0;align=center;html=1;shape=mxgraph.mockup.forms.rrect;rSize=5;strokeColor=none;fontColor=#ffffff;fillColor=#66bbff;fontSize=16;fontStyle=1;" vertex="1" parent="YO6Z3mdkmXWNWB0Maegm-6">
          <mxGeometry y="1" width="80" height="30" relative="1" as="geometry">
            <mxPoint x="20" y="-50" as="offset" />
          </mxGeometry>
        </mxCell>
        <mxCell id="YO6Z3mdkmXWNWB0Maegm-18" value="AMC" style="html=1;shadow=0;dashed=0;shape=mxgraph.bootstrap.rrect;rSize=5;fillColor=#0085FC;strokeColor=none;fontSize=14;fontColor=#ffffff;sketch=0;" vertex="1" parent="YO6Z3mdkmXWNWB0Maegm-1">
          <mxGeometry x="23" y="130" width="70" height="40" as="geometry" />
        </mxCell>
        <mxCell id="YO6Z3mdkmXWNWB0Maegm-19" value="Home" style="fillColor=none;strokeColor=none;fontSize=14;fontColor=#0085FC;" vertex="1" parent="YO6Z3mdkmXWNWB0Maegm-1">
          <mxGeometry x="110" y="130" width="50" height="40" as="geometry" />
        </mxCell>
        <mxCell id="YO6Z3mdkmXWNWB0Maegm-20" value="Registration" style="strokeColor=none;fillColor=none;rSize=5;perimeter=none;whiteSpace=wrap;resizeWidth=1;align=center;spacing=20;fontSize=14;fontColor=#0085FC;spacingRight=10;" vertex="1" parent="YO6Z3mdkmXWNWB0Maegm-1">
          <mxGeometry x="300" y="130" width="100" height="40" as="geometry" />
        </mxCell>
        <mxCell id="YO6Z3mdkmXWNWB0Maegm-21" value="" style="shape=triangle;direction=south;fillColor=#0085FC;strokeColor=none;perimeter=none;sketch=0;" vertex="1" parent="YO6Z3mdkmXWNWB0Maegm-20">
          <mxGeometry x="1" y="0.5" width="10" height="5" relative="1" as="geometry">
            <mxPoint x="-17" y="-2.5" as="offset" />
          </mxGeometry>
        </mxCell>
        <mxCell id="YO6Z3mdkmXWNWB0Maegm-22" value="" style="edgeStyle=orthogonalEdgeStyle;rounded=0;orthogonalLoop=1;jettySize=auto;html=1;fontSize=44;" edge="1" parent="1" source="YO6Z3mdkmXWNWB0Maegm-23" target="YO6Z3mdkmXWNWB0Maegm-1">
          <mxGeometry relative="1" as="geometry" />
        </mxCell>
        <mxCell id="YO6Z3mdkmXWNWB0Maegm-23" value="&lt;font style=&quot;font-size: 44px&quot;&gt;User Login Page&lt;/font&gt;" style="text;html=1;strokeColor=none;fillColor=none;align=center;verticalAlign=middle;whiteSpace=wrap;rounded=0;" vertex="1" parent="1">
          <mxGeometry x="-827" y="100" width="640" height="30" as="geometry" />
        </mxCell>
      </root>
    </mxGraphModel>
  </diagram>
  <diagram id="wVuenYVviJJJPnbwRes3" name="Page-4">
    <mxGraphModel dx="3218" dy="836" grid="1" gridSize="10" guides="1" tooltips="1" connect="1" arrows="1" fold="1" page="1" pageScale="1" pageWidth="827" pageHeight="1169" math="0" shadow="0">
      <root>
        <mxCell id="0" />
        <mxCell id="1" parent="0" />
        <mxCell id="QrsOJuN4BK01-RdIOgOk-1" value="" style="strokeWidth=1;shadow=0;dashed=0;align=center;html=1;shape=mxgraph.mockup.containers.browserWindow;rSize=0;strokeColor=#666666;strokeColor2=#008cff;strokeColor3=#c4c4c4;mainText=,;recursiveResize=0;fontSize=44;" vertex="1" parent="1">
          <mxGeometry x="-920" y="180" width="860" height="520" as="geometry" />
        </mxCell>
        <mxCell id="QrsOJuN4BK01-RdIOgOk-2" value="Page 1" style="strokeWidth=1;shadow=0;dashed=0;align=center;html=1;shape=mxgraph.mockup.containers.anchor;fontSize=17;fontColor=#666666;align=left;" vertex="1" parent="QrsOJuN4BK01-RdIOgOk-1">
          <mxGeometry x="60" y="12" width="110" height="26" as="geometry" />
        </mxCell>
        <mxCell id="QrsOJuN4BK01-RdIOgOk-3" value="http://localhost:44308/session" style="strokeWidth=1;shadow=0;dashed=0;align=center;html=1;shape=mxgraph.mockup.containers.anchor;rSize=0;fontSize=17;fontColor=#666666;align=left;" vertex="1" parent="QrsOJuN4BK01-RdIOgOk-1">
          <mxGeometry x="130" y="60" width="300" height="26" as="geometry" />
        </mxCell>
        <mxCell id="QrsOJuN4BK01-RdIOgOk-18" value="AMC" style="html=1;shadow=0;dashed=0;shape=mxgraph.bootstrap.rrect;rSize=5;fillColor=#0085FC;strokeColor=none;fontSize=14;fontColor=#ffffff;sketch=0;" vertex="1" parent="QrsOJuN4BK01-RdIOgOk-1">
          <mxGeometry x="23" y="130" width="70" height="40" as="geometry" />
        </mxCell>
        <mxCell id="QrsOJuN4BK01-RdIOgOk-19" value="Home" style="fillColor=none;strokeColor=none;fontSize=14;fontColor=#0085FC;" vertex="1" parent="QrsOJuN4BK01-RdIOgOk-1">
          <mxGeometry x="110" y="130" width="50" height="40" as="geometry" />
        </mxCell>
        <mxCell id="QrsOJuN4BK01-RdIOgOk-24" value="Session" style="fillColor=none;strokeColor=none;fontSize=14;fontColor=#0085FC;" vertex="1" parent="QrsOJuN4BK01-RdIOgOk-1">
          <mxGeometry x="170" y="130" width="50" height="40" as="geometry" />
        </mxCell>
        <mxCell id="QrsOJuN4BK01-RdIOgOk-25" value="Trainer" style="fillColor=none;strokeColor=none;fontSize=14;fontColor=#0085FC;" vertex="1" parent="QrsOJuN4BK01-RdIOgOk-1">
          <mxGeometry x="250" y="130" width="50" height="40" as="geometry" />
        </mxCell>
        <mxCell id="QrsOJuN4BK01-RdIOgOk-26" value="Mark attendence" style="fillColor=none;strokeColor=none;fontSize=14;fontColor=#0085FC;" vertex="1" parent="QrsOJuN4BK01-RdIOgOk-1">
          <mxGeometry x="320" y="130" width="100" height="40" as="geometry" />
        </mxCell>
        <mxCell id="QrsOJuN4BK01-RdIOgOk-27" value="Skill Set" style="fillColor=none;strokeColor=none;fontSize=14;fontColor=#0085FC;" vertex="1" parent="QrsOJuN4BK01-RdIOgOk-1">
          <mxGeometry x="430" y="130" width="60" height="40" as="geometry" />
        </mxCell>
        <mxCell id="QrsOJuN4BK01-RdIOgOk-28" value="Feedback" style="fillColor=none;strokeColor=none;fontSize=14;fontColor=#0085FC;" vertex="1" parent="QrsOJuN4BK01-RdIOgOk-1">
          <mxGeometry x="500" y="130" width="50" height="40" as="geometry" />
        </mxCell>
        <mxCell id="QrsOJuN4BK01-RdIOgOk-29" value="Logout" style="fillColor=none;strokeColor=none;fontSize=14;fontColor=#0085FC;" vertex="1" parent="QrsOJuN4BK01-RdIOgOk-1">
          <mxGeometry x="570" y="130" width="50" height="40" as="geometry" />
        </mxCell>
        <mxCell id="QrsOJuN4BK01-RdIOgOk-22" value="" style="edgeStyle=orthogonalEdgeStyle;rounded=0;orthogonalLoop=1;jettySize=auto;html=1;fontSize=44;" edge="1" parent="1" source="QrsOJuN4BK01-RdIOgOk-23" target="QrsOJuN4BK01-RdIOgOk-1">
          <mxGeometry relative="1" as="geometry" />
        </mxCell>
        <mxCell id="QrsOJuN4BK01-RdIOgOk-23" value="&lt;font style=&quot;font-size: 44px&quot;&gt;Admin main Page&lt;/font&gt;" style="text;html=1;strokeColor=none;fillColor=none;align=center;verticalAlign=middle;whiteSpace=wrap;rounded=0;" vertex="1" parent="1">
          <mxGeometry x="-827" y="100" width="640" height="30" as="geometry" />
        </mxCell>
        <mxCell id="QrsOJuN4BK01-RdIOgOk-30" value="" style="shape=table;html=1;whiteSpace=wrap;startSize=0;container=1;collapsible=0;childLayout=tableLayout;fontSize=44;" vertex="1" parent="1">
          <mxGeometry x="-840" y="380" width="720" height="280" as="geometry" />
        </mxCell>
        <mxCell id="QrsOJuN4BK01-RdIOgOk-31" value="" style="shape=tableRow;horizontal=0;startSize=0;swimlaneHead=0;swimlaneBody=0;top=0;left=0;bottom=0;right=0;collapsible=0;dropTarget=0;fillColor=none;points=[[0,0.5],[1,0.5]];portConstraint=eastwest;fontSize=44;" vertex="1" parent="QrsOJuN4BK01-RdIOgOk-30">
          <mxGeometry width="720" height="93" as="geometry" />
        </mxCell>
        <mxCell id="QrsOJuN4BK01-RdIOgOk-32" value="" style="shape=partialRectangle;html=1;whiteSpace=wrap;connectable=0;fillColor=none;top=0;left=0;bottom=0;right=0;overflow=hidden;fontSize=44;" vertex="1" parent="QrsOJuN4BK01-RdIOgOk-31">
          <mxGeometry width="240" height="93" as="geometry">
            <mxRectangle width="240" height="93" as="alternateBounds" />
          </mxGeometry>
        </mxCell>
        <mxCell id="QrsOJuN4BK01-RdIOgOk-33" value="" style="shape=partialRectangle;html=1;whiteSpace=wrap;connectable=0;fillColor=none;top=0;left=0;bottom=0;right=0;overflow=hidden;fontSize=44;" vertex="1" parent="QrsOJuN4BK01-RdIOgOk-31">
          <mxGeometry x="240" width="240" height="93" as="geometry">
            <mxRectangle width="240" height="93" as="alternateBounds" />
          </mxGeometry>
        </mxCell>
        <mxCell id="QrsOJuN4BK01-RdIOgOk-34" value="" style="shape=partialRectangle;html=1;whiteSpace=wrap;connectable=0;fillColor=none;top=0;left=0;bottom=0;right=0;overflow=hidden;fontSize=44;" vertex="1" parent="QrsOJuN4BK01-RdIOgOk-31">
          <mxGeometry x="480" width="240" height="93" as="geometry">
            <mxRectangle width="240" height="93" as="alternateBounds" />
          </mxGeometry>
        </mxCell>
        <mxCell id="QrsOJuN4BK01-RdIOgOk-35" value="" style="shape=tableRow;horizontal=0;startSize=0;swimlaneHead=0;swimlaneBody=0;top=0;left=0;bottom=0;right=0;collapsible=0;dropTarget=0;fillColor=none;points=[[0,0.5],[1,0.5]];portConstraint=eastwest;fontSize=44;" vertex="1" parent="QrsOJuN4BK01-RdIOgOk-30">
          <mxGeometry y="93" width="720" height="94" as="geometry" />
        </mxCell>
        <mxCell id="QrsOJuN4BK01-RdIOgOk-36" value="" style="shape=partialRectangle;html=1;whiteSpace=wrap;connectable=0;fillColor=none;top=0;left=0;bottom=0;right=0;overflow=hidden;fontSize=44;" vertex="1" parent="QrsOJuN4BK01-RdIOgOk-35">
          <mxGeometry width="240" height="94" as="geometry">
            <mxRectangle width="240" height="94" as="alternateBounds" />
          </mxGeometry>
        </mxCell>
        <mxCell id="QrsOJuN4BK01-RdIOgOk-37" value="" style="shape=partialRectangle;html=1;whiteSpace=wrap;connectable=0;fillColor=none;top=0;left=0;bottom=0;right=0;overflow=hidden;fontSize=44;" vertex="1" parent="QrsOJuN4BK01-RdIOgOk-35">
          <mxGeometry x="240" width="240" height="94" as="geometry">
            <mxRectangle width="240" height="94" as="alternateBounds" />
          </mxGeometry>
        </mxCell>
        <mxCell id="QrsOJuN4BK01-RdIOgOk-38" value="" style="shape=partialRectangle;html=1;whiteSpace=wrap;connectable=0;fillColor=none;top=0;left=0;bottom=0;right=0;overflow=hidden;fontSize=44;" vertex="1" parent="QrsOJuN4BK01-RdIOgOk-35">
          <mxGeometry x="480" width="240" height="94" as="geometry">
            <mxRectangle width="240" height="94" as="alternateBounds" />
          </mxGeometry>
        </mxCell>
        <mxCell id="QrsOJuN4BK01-RdIOgOk-39" value="" style="shape=tableRow;horizontal=0;startSize=0;swimlaneHead=0;swimlaneBody=0;top=0;left=0;bottom=0;right=0;collapsible=0;dropTarget=0;fillColor=none;points=[[0,0.5],[1,0.5]];portConstraint=eastwest;fontSize=44;" vertex="1" parent="QrsOJuN4BK01-RdIOgOk-30">
          <mxGeometry y="187" width="720" height="93" as="geometry" />
        </mxCell>
        <mxCell id="QrsOJuN4BK01-RdIOgOk-40" value="" style="shape=partialRectangle;html=1;whiteSpace=wrap;connectable=0;fillColor=none;top=0;left=0;bottom=0;right=0;overflow=hidden;fontSize=44;" vertex="1" parent="QrsOJuN4BK01-RdIOgOk-39">
          <mxGeometry width="240" height="93" as="geometry">
            <mxRectangle width="240" height="93" as="alternateBounds" />
          </mxGeometry>
        </mxCell>
        <mxCell id="QrsOJuN4BK01-RdIOgOk-41" value="" style="shape=partialRectangle;html=1;whiteSpace=wrap;connectable=0;fillColor=none;top=0;left=0;bottom=0;right=0;overflow=hidden;fontSize=44;" vertex="1" parent="QrsOJuN4BK01-RdIOgOk-39">
          <mxGeometry x="240" width="240" height="93" as="geometry">
            <mxRectangle width="240" height="93" as="alternateBounds" />
          </mxGeometry>
        </mxCell>
        <mxCell id="QrsOJuN4BK01-RdIOgOk-42" value="" style="shape=partialRectangle;html=1;whiteSpace=wrap;connectable=0;fillColor=none;top=0;left=0;bottom=0;right=0;overflow=hidden;pointerEvents=1;fontSize=44;" vertex="1" parent="QrsOJuN4BK01-RdIOgOk-39">
          <mxGeometry x="480" width="240" height="93" as="geometry">
            <mxRectangle width="240" height="93" as="alternateBounds" />
          </mxGeometry>
        </mxCell>
      </root>
    </mxGraphModel>
  </diagram>
  <diagram id="11nQu1pqybvUD9H-wPLj" name="Page-5">
    <mxGraphModel dx="2574" dy="492" grid="1" gridSize="10" guides="1" tooltips="1" connect="1" arrows="1" fold="1" page="1" pageScale="1" pageWidth="827" pageHeight="1169" math="0" shadow="0">
      <root>
        <mxCell id="0" />
        <mxCell id="1" parent="0" />
        <mxCell id="nvJTRBFy66R2gCj7NTSd-1" value="" style="strokeWidth=1;shadow=0;dashed=0;align=center;html=1;shape=mxgraph.mockup.containers.browserWindow;rSize=0;strokeColor=#666666;strokeColor2=#008cff;strokeColor3=#c4c4c4;mainText=,;recursiveResize=0;fontSize=44;" vertex="1" parent="1">
          <mxGeometry x="-920" y="180" width="860" height="520" as="geometry" />
        </mxCell>
        <mxCell id="nvJTRBFy66R2gCj7NTSd-2" value="Page 1" style="strokeWidth=1;shadow=0;dashed=0;align=center;html=1;shape=mxgraph.mockup.containers.anchor;fontSize=17;fontColor=#666666;align=left;" vertex="1" parent="nvJTRBFy66R2gCj7NTSd-1">
          <mxGeometry x="60" y="12" width="110" height="26" as="geometry" />
        </mxCell>
        <mxCell id="nvJTRBFy66R2gCj7NTSd-3" value="http://localhost:44308/Trainer" style="strokeWidth=1;shadow=0;dashed=0;align=center;html=1;shape=mxgraph.mockup.containers.anchor;rSize=0;fontSize=17;fontColor=#666666;align=left;" vertex="1" parent="nvJTRBFy66R2gCj7NTSd-1">
          <mxGeometry x="130" y="60" width="300" height="26" as="geometry" />
        </mxCell>
        <mxCell id="nvJTRBFy66R2gCj7NTSd-4" value="AMC" style="html=1;shadow=0;dashed=0;shape=mxgraph.bootstrap.rrect;rSize=5;fillColor=#0085FC;strokeColor=none;fontSize=14;fontColor=#ffffff;sketch=0;" vertex="1" parent="nvJTRBFy66R2gCj7NTSd-1">
          <mxGeometry x="23" y="130" width="70" height="40" as="geometry" />
        </mxCell>
        <mxCell id="nvJTRBFy66R2gCj7NTSd-5" value="Home" style="fillColor=none;strokeColor=none;fontSize=14;fontColor=#0085FC;" vertex="1" parent="nvJTRBFy66R2gCj7NTSd-1">
          <mxGeometry x="110" y="130" width="50" height="40" as="geometry" />
        </mxCell>
        <mxCell id="nvJTRBFy66R2gCj7NTSd-6" value="Session" style="fillColor=none;strokeColor=none;fontSize=14;fontColor=#0085FC;" vertex="1" parent="nvJTRBFy66R2gCj7NTSd-1">
          <mxGeometry x="170" y="130" width="50" height="40" as="geometry" />
        </mxCell>
        <mxCell id="nvJTRBFy66R2gCj7NTSd-7" value="Trainer" style="fillColor=none;strokeColor=none;fontSize=14;fontColor=#0085FC;" vertex="1" parent="nvJTRBFy66R2gCj7NTSd-1">
          <mxGeometry x="250" y="130" width="50" height="40" as="geometry" />
        </mxCell>
        <mxCell id="nvJTRBFy66R2gCj7NTSd-8" value="Mark attendence" style="fillColor=none;strokeColor=none;fontSize=14;fontColor=#0085FC;" vertex="1" parent="nvJTRBFy66R2gCj7NTSd-1">
          <mxGeometry x="320" y="130" width="100" height="40" as="geometry" />
        </mxCell>
        <mxCell id="nvJTRBFy66R2gCj7NTSd-9" value="Skill Set" style="fillColor=none;strokeColor=none;fontSize=14;fontColor=#0085FC;" vertex="1" parent="nvJTRBFy66R2gCj7NTSd-1">
          <mxGeometry x="430" y="130" width="60" height="40" as="geometry" />
        </mxCell>
        <mxCell id="nvJTRBFy66R2gCj7NTSd-10" value="Feedback" style="fillColor=none;strokeColor=none;fontSize=14;fontColor=#0085FC;" vertex="1" parent="nvJTRBFy66R2gCj7NTSd-1">
          <mxGeometry x="500" y="130" width="50" height="40" as="geometry" />
        </mxCell>
        <mxCell id="nvJTRBFy66R2gCj7NTSd-11" value="Logout" style="fillColor=none;strokeColor=none;fontSize=14;fontColor=#0085FC;" vertex="1" parent="nvJTRBFy66R2gCj7NTSd-1">
          <mxGeometry x="570" y="130" width="50" height="40" as="geometry" />
        </mxCell>
        <mxCell id="nvJTRBFy66R2gCj7NTSd-12" value="" style="edgeStyle=orthogonalEdgeStyle;rounded=0;orthogonalLoop=1;jettySize=auto;html=1;fontSize=44;" edge="1" parent="1" source="nvJTRBFy66R2gCj7NTSd-13" target="nvJTRBFy66R2gCj7NTSd-1">
          <mxGeometry relative="1" as="geometry" />
        </mxCell>
        <mxCell id="nvJTRBFy66R2gCj7NTSd-13" value="&lt;font style=&quot;font-size: 44px&quot;&gt;Trainer main Page&lt;/font&gt;" style="text;html=1;strokeColor=none;fillColor=none;align=center;verticalAlign=middle;whiteSpace=wrap;rounded=0;" vertex="1" parent="1">
          <mxGeometry x="-827" y="100" width="640" height="30" as="geometry" />
        </mxCell>
        <mxCell id="nvJTRBFy66R2gCj7NTSd-14" value="" style="shape=table;html=1;whiteSpace=wrap;startSize=0;container=1;collapsible=0;childLayout=tableLayout;fontSize=44;" vertex="1" parent="1">
          <mxGeometry x="-840" y="380" width="720" height="280" as="geometry" />
        </mxCell>
        <mxCell id="nvJTRBFy66R2gCj7NTSd-15" value="" style="shape=tableRow;horizontal=0;startSize=0;swimlaneHead=0;swimlaneBody=0;top=0;left=0;bottom=0;right=0;collapsible=0;dropTarget=0;fillColor=none;points=[[0,0.5],[1,0.5]];portConstraint=eastwest;fontSize=44;" vertex="1" parent="nvJTRBFy66R2gCj7NTSd-14">
          <mxGeometry width="720" height="93" as="geometry" />
        </mxCell>
        <mxCell id="nvJTRBFy66R2gCj7NTSd-16" value="" style="shape=partialRectangle;html=1;whiteSpace=wrap;connectable=0;fillColor=none;top=0;left=0;bottom=0;right=0;overflow=hidden;fontSize=44;" vertex="1" parent="nvJTRBFy66R2gCj7NTSd-15">
          <mxGeometry width="240" height="93" as="geometry">
            <mxRectangle width="240" height="93" as="alternateBounds" />
          </mxGeometry>
        </mxCell>
        <mxCell id="nvJTRBFy66R2gCj7NTSd-17" value="" style="shape=partialRectangle;html=1;whiteSpace=wrap;connectable=0;fillColor=none;top=0;left=0;bottom=0;right=0;overflow=hidden;fontSize=44;" vertex="1" parent="nvJTRBFy66R2gCj7NTSd-15">
          <mxGeometry x="240" width="240" height="93" as="geometry">
            <mxRectangle width="240" height="93" as="alternateBounds" />
          </mxGeometry>
        </mxCell>
        <mxCell id="nvJTRBFy66R2gCj7NTSd-18" value="" style="shape=partialRectangle;html=1;whiteSpace=wrap;connectable=0;fillColor=none;top=0;left=0;bottom=0;right=0;overflow=hidden;fontSize=44;" vertex="1" parent="nvJTRBFy66R2gCj7NTSd-15">
          <mxGeometry x="480" width="240" height="93" as="geometry">
            <mxRectangle width="240" height="93" as="alternateBounds" />
          </mxGeometry>
        </mxCell>
        <mxCell id="nvJTRBFy66R2gCj7NTSd-19" value="" style="shape=tableRow;horizontal=0;startSize=0;swimlaneHead=0;swimlaneBody=0;top=0;left=0;bottom=0;right=0;collapsible=0;dropTarget=0;fillColor=none;points=[[0,0.5],[1,0.5]];portConstraint=eastwest;fontSize=44;" vertex="1" parent="nvJTRBFy66R2gCj7NTSd-14">
          <mxGeometry y="93" width="720" height="94" as="geometry" />
        </mxCell>
        <mxCell id="nvJTRBFy66R2gCj7NTSd-20" value="" style="shape=partialRectangle;html=1;whiteSpace=wrap;connectable=0;fillColor=none;top=0;left=0;bottom=0;right=0;overflow=hidden;fontSize=44;" vertex="1" parent="nvJTRBFy66R2gCj7NTSd-19">
          <mxGeometry width="240" height="94" as="geometry">
            <mxRectangle width="240" height="94" as="alternateBounds" />
          </mxGeometry>
        </mxCell>
        <mxCell id="nvJTRBFy66R2gCj7NTSd-21" value="" style="shape=partialRectangle;html=1;whiteSpace=wrap;connectable=0;fillColor=none;top=0;left=0;bottom=0;right=0;overflow=hidden;fontSize=44;" vertex="1" parent="nvJTRBFy66R2gCj7NTSd-19">
          <mxGeometry x="240" width="240" height="94" as="geometry">
            <mxRectangle width="240" height="94" as="alternateBounds" />
          </mxGeometry>
        </mxCell>
        <mxCell id="nvJTRBFy66R2gCj7NTSd-22" value="" style="shape=partialRectangle;html=1;whiteSpace=wrap;connectable=0;fillColor=none;top=0;left=0;bottom=0;right=0;overflow=hidden;fontSize=44;" vertex="1" parent="nvJTRBFy66R2gCj7NTSd-19">
          <mxGeometry x="480" width="240" height="94" as="geometry">
            <mxRectangle width="240" height="94" as="alternateBounds" />
          </mxGeometry>
        </mxCell>
        <mxCell id="nvJTRBFy66R2gCj7NTSd-23" value="" style="shape=tableRow;horizontal=0;startSize=0;swimlaneHead=0;swimlaneBody=0;top=0;left=0;bottom=0;right=0;collapsible=0;dropTarget=0;fillColor=none;points=[[0,0.5],[1,0.5]];portConstraint=eastwest;fontSize=44;" vertex="1" parent="nvJTRBFy66R2gCj7NTSd-14">
          <mxGeometry y="187" width="720" height="93" as="geometry" />
        </mxCell>
        <mxCell id="nvJTRBFy66R2gCj7NTSd-24" value="" style="shape=partialRectangle;html=1;whiteSpace=wrap;connectable=0;fillColor=none;top=0;left=0;bottom=0;right=0;overflow=hidden;fontSize=44;" vertex="1" parent="nvJTRBFy66R2gCj7NTSd-23">
          <mxGeometry width="240" height="93" as="geometry">
            <mxRectangle width="240" height="93" as="alternateBounds" />
          </mxGeometry>
        </mxCell>
        <mxCell id="nvJTRBFy66R2gCj7NTSd-25" value="" style="shape=partialRectangle;html=1;whiteSpace=wrap;connectable=0;fillColor=none;top=0;left=0;bottom=0;right=0;overflow=hidden;fontSize=44;" vertex="1" parent="nvJTRBFy66R2gCj7NTSd-23">
          <mxGeometry x="240" width="240" height="93" as="geometry">
            <mxRectangle width="240" height="93" as="alternateBounds" />
          </mxGeometry>
        </mxCell>
        <mxCell id="nvJTRBFy66R2gCj7NTSd-26" value="" style="shape=partialRectangle;html=1;whiteSpace=wrap;connectable=0;fillColor=none;top=0;left=0;bottom=0;right=0;overflow=hidden;pointerEvents=1;fontSize=44;" vertex="1" parent="nvJTRBFy66R2gCj7NTSd-23">
          <mxGeometry x="480" width="240" height="93" as="geometry">
            <mxRectangle width="240" height="93" as="alternateBounds" />
          </mxGeometry>
        </mxCell>
      </root>
    </mxGraphModel>
  </diagram>
  <diagram id="uj7HXzCWNio3m3TaeD-w" name="Page-6">
    <mxGraphModel dx="2436" dy="418" grid="1" gridSize="10" guides="1" tooltips="1" connect="1" arrows="1" fold="1" page="1" pageScale="1" pageWidth="827" pageHeight="1169" math="0" shadow="0">
      <root>
        <mxCell id="0" />
        <mxCell id="1" parent="0" />
        <mxCell id="Dc_SakO5FGhT634Z4xbn-1" value="" style="strokeWidth=1;shadow=0;dashed=0;align=center;html=1;shape=mxgraph.mockup.containers.browserWindow;rSize=0;strokeColor=#666666;strokeColor2=#008cff;strokeColor3=#c4c4c4;mainText=,;recursiveResize=0;fontSize=44;" vertex="1" parent="1">
          <mxGeometry x="-920" y="180" width="860" height="520" as="geometry" />
        </mxCell>
        <mxCell id="Dc_SakO5FGhT634Z4xbn-2" value="Page 1" style="strokeWidth=1;shadow=0;dashed=0;align=center;html=1;shape=mxgraph.mockup.containers.anchor;fontSize=17;fontColor=#666666;align=left;" vertex="1" parent="Dc_SakO5FGhT634Z4xbn-1">
          <mxGeometry x="60" y="12" width="110" height="26" as="geometry" />
        </mxCell>
        <mxCell id="Dc_SakO5FGhT634Z4xbn-3" value="http://localhost:44308/skillset" style="strokeWidth=1;shadow=0;dashed=0;align=center;html=1;shape=mxgraph.mockup.containers.anchor;rSize=0;fontSize=17;fontColor=#666666;align=left;" vertex="1" parent="Dc_SakO5FGhT634Z4xbn-1">
          <mxGeometry x="130" y="60" width="300" height="26" as="geometry" />
        </mxCell>
        <mxCell id="Dc_SakO5FGhT634Z4xbn-4" value="AMC" style="html=1;shadow=0;dashed=0;shape=mxgraph.bootstrap.rrect;rSize=5;fillColor=#0085FC;strokeColor=none;fontSize=14;fontColor=#ffffff;sketch=0;" vertex="1" parent="Dc_SakO5FGhT634Z4xbn-1">
          <mxGeometry x="23" y="130" width="70" height="40" as="geometry" />
        </mxCell>
        <mxCell id="Dc_SakO5FGhT634Z4xbn-5" value="Home" style="fillColor=none;strokeColor=none;fontSize=14;fontColor=#0085FC;" vertex="1" parent="Dc_SakO5FGhT634Z4xbn-1">
          <mxGeometry x="110" y="130" width="50" height="40" as="geometry" />
        </mxCell>
        <mxCell id="Dc_SakO5FGhT634Z4xbn-6" value="Session" style="fillColor=none;strokeColor=none;fontSize=14;fontColor=#0085FC;" vertex="1" parent="Dc_SakO5FGhT634Z4xbn-1">
          <mxGeometry x="170" y="130" width="50" height="40" as="geometry" />
        </mxCell>
        <mxCell id="Dc_SakO5FGhT634Z4xbn-7" value="Trainer" style="fillColor=none;strokeColor=none;fontSize=14;fontColor=#0085FC;" vertex="1" parent="Dc_SakO5FGhT634Z4xbn-1">
          <mxGeometry x="250" y="130" width="50" height="40" as="geometry" />
        </mxCell>
        <mxCell id="Dc_SakO5FGhT634Z4xbn-8" value="Mark attendence" style="fillColor=none;strokeColor=none;fontSize=14;fontColor=#0085FC;" vertex="1" parent="Dc_SakO5FGhT634Z4xbn-1">
          <mxGeometry x="320" y="130" width="100" height="40" as="geometry" />
        </mxCell>
        <mxCell id="Dc_SakO5FGhT634Z4xbn-9" value="Skill Set" style="fillColor=none;strokeColor=none;fontSize=14;fontColor=#0085FC;" vertex="1" parent="Dc_SakO5FGhT634Z4xbn-1">
          <mxGeometry x="430" y="130" width="60" height="40" as="geometry" />
        </mxCell>
        <mxCell id="Dc_SakO5FGhT634Z4xbn-10" value="Feedback" style="fillColor=none;strokeColor=none;fontSize=14;fontColor=#0085FC;" vertex="1" parent="Dc_SakO5FGhT634Z4xbn-1">
          <mxGeometry x="500" y="130" width="50" height="40" as="geometry" />
        </mxCell>
        <mxCell id="Dc_SakO5FGhT634Z4xbn-11" value="Logout" style="fillColor=none;strokeColor=none;fontSize=14;fontColor=#0085FC;" vertex="1" parent="Dc_SakO5FGhT634Z4xbn-1">
          <mxGeometry x="570" y="130" width="50" height="40" as="geometry" />
        </mxCell>
        <mxCell id="Dc_SakO5FGhT634Z4xbn-12" value="" style="edgeStyle=orthogonalEdgeStyle;rounded=0;orthogonalLoop=1;jettySize=auto;html=1;fontSize=44;" edge="1" parent="1" source="Dc_SakO5FGhT634Z4xbn-13" target="Dc_SakO5FGhT634Z4xbn-1">
          <mxGeometry relative="1" as="geometry" />
        </mxCell>
        <mxCell id="Dc_SakO5FGhT634Z4xbn-13" value="&lt;font style=&quot;font-size: 44px&quot;&gt;Skillset main Page&lt;/font&gt;" style="text;html=1;strokeColor=none;fillColor=none;align=center;verticalAlign=middle;whiteSpace=wrap;rounded=0;" vertex="1" parent="1">
          <mxGeometry x="-827" y="100" width="640" height="30" as="geometry" />
        </mxCell>
        <mxCell id="Dc_SakO5FGhT634Z4xbn-14" value="" style="shape=table;html=1;whiteSpace=wrap;startSize=0;container=1;collapsible=0;childLayout=tableLayout;fontSize=44;" vertex="1" parent="1">
          <mxGeometry x="-840" y="380" width="720" height="280" as="geometry" />
        </mxCell>
        <mxCell id="Dc_SakO5FGhT634Z4xbn-15" value="" style="shape=tableRow;horizontal=0;startSize=0;swimlaneHead=0;swimlaneBody=0;top=0;left=0;bottom=0;right=0;collapsible=0;dropTarget=0;fillColor=none;points=[[0,0.5],[1,0.5]];portConstraint=eastwest;fontSize=44;" vertex="1" parent="Dc_SakO5FGhT634Z4xbn-14">
          <mxGeometry width="720" height="93" as="geometry" />
        </mxCell>
        <mxCell id="Dc_SakO5FGhT634Z4xbn-16" value="" style="shape=partialRectangle;html=1;whiteSpace=wrap;connectable=0;fillColor=none;top=0;left=0;bottom=0;right=0;overflow=hidden;fontSize=44;" vertex="1" parent="Dc_SakO5FGhT634Z4xbn-15">
          <mxGeometry width="240" height="93" as="geometry">
            <mxRectangle width="240" height="93" as="alternateBounds" />
          </mxGeometry>
        </mxCell>
        <mxCell id="Dc_SakO5FGhT634Z4xbn-17" value="" style="shape=partialRectangle;html=1;whiteSpace=wrap;connectable=0;fillColor=none;top=0;left=0;bottom=0;right=0;overflow=hidden;fontSize=44;" vertex="1" parent="Dc_SakO5FGhT634Z4xbn-15">
          <mxGeometry x="240" width="240" height="93" as="geometry">
            <mxRectangle width="240" height="93" as="alternateBounds" />
          </mxGeometry>
        </mxCell>
        <mxCell id="Dc_SakO5FGhT634Z4xbn-18" value="" style="shape=partialRectangle;html=1;whiteSpace=wrap;connectable=0;fillColor=none;top=0;left=0;bottom=0;right=0;overflow=hidden;fontSize=44;" vertex="1" parent="Dc_SakO5FGhT634Z4xbn-15">
          <mxGeometry x="480" width="240" height="93" as="geometry">
            <mxRectangle width="240" height="93" as="alternateBounds" />
          </mxGeometry>
        </mxCell>
        <mxCell id="Dc_SakO5FGhT634Z4xbn-19" value="" style="shape=tableRow;horizontal=0;startSize=0;swimlaneHead=0;swimlaneBody=0;top=0;left=0;bottom=0;right=0;collapsible=0;dropTarget=0;fillColor=none;points=[[0,0.5],[1,0.5]];portConstraint=eastwest;fontSize=44;" vertex="1" parent="Dc_SakO5FGhT634Z4xbn-14">
          <mxGeometry y="93" width="720" height="94" as="geometry" />
        </mxCell>
        <mxCell id="Dc_SakO5FGhT634Z4xbn-20" value="" style="shape=partialRectangle;html=1;whiteSpace=wrap;connectable=0;fillColor=none;top=0;left=0;bottom=0;right=0;overflow=hidden;fontSize=44;" vertex="1" parent="Dc_SakO5FGhT634Z4xbn-19">
          <mxGeometry width="240" height="94" as="geometry">
            <mxRectangle width="240" height="94" as="alternateBounds" />
          </mxGeometry>
        </mxCell>
        <mxCell id="Dc_SakO5FGhT634Z4xbn-21" value="" style="shape=partialRectangle;html=1;whiteSpace=wrap;connectable=0;fillColor=none;top=0;left=0;bottom=0;right=0;overflow=hidden;fontSize=44;" vertex="1" parent="Dc_SakO5FGhT634Z4xbn-19">
          <mxGeometry x="240" width="240" height="94" as="geometry">
            <mxRectangle width="240" height="94" as="alternateBounds" />
          </mxGeometry>
        </mxCell>
        <mxCell id="Dc_SakO5FGhT634Z4xbn-22" value="" style="shape=partialRectangle;html=1;whiteSpace=wrap;connectable=0;fillColor=none;top=0;left=0;bottom=0;right=0;overflow=hidden;fontSize=44;" vertex="1" parent="Dc_SakO5FGhT634Z4xbn-19">
          <mxGeometry x="480" width="240" height="94" as="geometry">
            <mxRectangle width="240" height="94" as="alternateBounds" />
          </mxGeometry>
        </mxCell>
        <mxCell id="Dc_SakO5FGhT634Z4xbn-23" value="" style="shape=tableRow;horizontal=0;startSize=0;swimlaneHead=0;swimlaneBody=0;top=0;left=0;bottom=0;right=0;collapsible=0;dropTarget=0;fillColor=none;points=[[0,0.5],[1,0.5]];portConstraint=eastwest;fontSize=44;" vertex="1" parent="Dc_SakO5FGhT634Z4xbn-14">
          <mxGeometry y="187" width="720" height="93" as="geometry" />
        </mxCell>
        <mxCell id="Dc_SakO5FGhT634Z4xbn-24" value="" style="shape=partialRectangle;html=1;whiteSpace=wrap;connectable=0;fillColor=none;top=0;left=0;bottom=0;right=0;overflow=hidden;fontSize=44;" vertex="1" parent="Dc_SakO5FGhT634Z4xbn-23">
          <mxGeometry width="240" height="93" as="geometry">
            <mxRectangle width="240" height="93" as="alternateBounds" />
          </mxGeometry>
        </mxCell>
        <mxCell id="Dc_SakO5FGhT634Z4xbn-25" value="" style="shape=partialRectangle;html=1;whiteSpace=wrap;connectable=0;fillColor=none;top=0;left=0;bottom=0;right=0;overflow=hidden;fontSize=44;" vertex="1" parent="Dc_SakO5FGhT634Z4xbn-23">
          <mxGeometry x="240" width="240" height="93" as="geometry">
            <mxRectangle width="240" height="93" as="alternateBounds" />
          </mxGeometry>
        </mxCell>
        <mxCell id="Dc_SakO5FGhT634Z4xbn-26" value="" style="shape=partialRectangle;html=1;whiteSpace=wrap;connectable=0;fillColor=none;top=0;left=0;bottom=0;right=0;overflow=hidden;pointerEvents=1;fontSize=44;" vertex="1" parent="Dc_SakO5FGhT634Z4xbn-23">
          <mxGeometry x="480" width="240" height="93" as="geometry">
            <mxRectangle width="240" height="93" as="alternateBounds" />
          </mxGeometry>
        </mxCell>
      </root>
    </mxGraphModel>
  </diagram>
  <diagram id="jBGq1zSRKWsBi8toT2Eu" name="Page-7">
    <mxGraphModel dx="2436" dy="418" grid="1" gridSize="10" guides="1" tooltips="1" connect="1" arrows="1" fold="1" page="1" pageScale="1" pageWidth="827" pageHeight="1169" math="0" shadow="0">
      <root>
        <mxCell id="0" />
        <mxCell id="1" parent="0" />
        <mxCell id="TzsYNP8NrKf-lR-TiJwy-1" value="" style="strokeWidth=1;shadow=0;dashed=0;align=center;html=1;shape=mxgraph.mockup.containers.browserWindow;rSize=0;strokeColor=#666666;strokeColor2=#008cff;strokeColor3=#c4c4c4;mainText=,;recursiveResize=0;fontSize=44;" vertex="1" parent="1">
          <mxGeometry x="-920" y="180" width="860" height="520" as="geometry" />
        </mxCell>
        <mxCell id="TzsYNP8NrKf-lR-TiJwy-2" value="Page 1" style="strokeWidth=1;shadow=0;dashed=0;align=center;html=1;shape=mxgraph.mockup.containers.anchor;fontSize=17;fontColor=#666666;align=left;" vertex="1" parent="TzsYNP8NrKf-lR-TiJwy-1">
          <mxGeometry x="60" y="12" width="110" height="26" as="geometry" />
        </mxCell>
        <mxCell id="TzsYNP8NrKf-lR-TiJwy-3" value="http://localhost:44308/Markattendence" style="strokeWidth=1;shadow=0;dashed=0;align=center;html=1;shape=mxgraph.mockup.containers.anchor;rSize=0;fontSize=17;fontColor=#666666;align=left;" vertex="1" parent="TzsYNP8NrKf-lR-TiJwy-1">
          <mxGeometry x="130" y="60" width="300" height="26" as="geometry" />
        </mxCell>
        <mxCell id="TzsYNP8NrKf-lR-TiJwy-4" value="AMC" style="html=1;shadow=0;dashed=0;shape=mxgraph.bootstrap.rrect;rSize=5;fillColor=#0085FC;strokeColor=none;fontSize=14;fontColor=#ffffff;sketch=0;" vertex="1" parent="TzsYNP8NrKf-lR-TiJwy-1">
          <mxGeometry x="23" y="130" width="70" height="40" as="geometry" />
        </mxCell>
        <mxCell id="TzsYNP8NrKf-lR-TiJwy-5" value="Home" style="fillColor=none;strokeColor=none;fontSize=14;fontColor=#0085FC;" vertex="1" parent="TzsYNP8NrKf-lR-TiJwy-1">
          <mxGeometry x="110" y="130" width="50" height="40" as="geometry" />
        </mxCell>
        <mxCell id="TzsYNP8NrKf-lR-TiJwy-6" value="Session" style="fillColor=none;strokeColor=none;fontSize=14;fontColor=#0085FC;" vertex="1" parent="TzsYNP8NrKf-lR-TiJwy-1">
          <mxGeometry x="170" y="130" width="50" height="40" as="geometry" />
        </mxCell>
        <mxCell id="TzsYNP8NrKf-lR-TiJwy-7" value="Trainer" style="fillColor=none;strokeColor=none;fontSize=14;fontColor=#0085FC;" vertex="1" parent="TzsYNP8NrKf-lR-TiJwy-1">
          <mxGeometry x="250" y="130" width="50" height="40" as="geometry" />
        </mxCell>
        <mxCell id="TzsYNP8NrKf-lR-TiJwy-8" value="Mark attendence" style="fillColor=none;strokeColor=none;fontSize=14;fontColor=#0085FC;" vertex="1" parent="TzsYNP8NrKf-lR-TiJwy-1">
          <mxGeometry x="320" y="130" width="100" height="40" as="geometry" />
        </mxCell>
        <mxCell id="TzsYNP8NrKf-lR-TiJwy-9" value="Skill Set" style="fillColor=none;strokeColor=none;fontSize=14;fontColor=#0085FC;" vertex="1" parent="TzsYNP8NrKf-lR-TiJwy-1">
          <mxGeometry x="430" y="130" width="60" height="40" as="geometry" />
        </mxCell>
        <mxCell id="TzsYNP8NrKf-lR-TiJwy-10" value="Feedback" style="fillColor=none;strokeColor=none;fontSize=14;fontColor=#0085FC;" vertex="1" parent="TzsYNP8NrKf-lR-TiJwy-1">
          <mxGeometry x="500" y="130" width="50" height="40" as="geometry" />
        </mxCell>
        <mxCell id="TzsYNP8NrKf-lR-TiJwy-11" value="Logout" style="fillColor=none;strokeColor=none;fontSize=14;fontColor=#0085FC;" vertex="1" parent="TzsYNP8NrKf-lR-TiJwy-1">
          <mxGeometry x="570" y="130" width="50" height="40" as="geometry" />
        </mxCell>
        <mxCell id="TzsYNP8NrKf-lR-TiJwy-12" value="" style="edgeStyle=orthogonalEdgeStyle;rounded=0;orthogonalLoop=1;jettySize=auto;html=1;fontSize=44;" edge="1" parent="1" source="TzsYNP8NrKf-lR-TiJwy-13" target="TzsYNP8NrKf-lR-TiJwy-1">
          <mxGeometry relative="1" as="geometry" />
        </mxCell>
        <mxCell id="TzsYNP8NrKf-lR-TiJwy-13" value="&lt;font style=&quot;font-size: 44px&quot;&gt;Mark attendence main Page&lt;/font&gt;" style="text;html=1;strokeColor=none;fillColor=none;align=center;verticalAlign=middle;whiteSpace=wrap;rounded=0;" vertex="1" parent="1">
          <mxGeometry x="-827" y="100" width="640" height="30" as="geometry" />
        </mxCell>
        <mxCell id="TzsYNP8NrKf-lR-TiJwy-14" value="" style="shape=table;html=1;whiteSpace=wrap;startSize=0;container=1;collapsible=0;childLayout=tableLayout;fontSize=44;" vertex="1" parent="1">
          <mxGeometry x="-840" y="380" width="720" height="280" as="geometry" />
        </mxCell>
        <mxCell id="TzsYNP8NrKf-lR-TiJwy-15" value="" style="shape=tableRow;horizontal=0;startSize=0;swimlaneHead=0;swimlaneBody=0;top=0;left=0;bottom=0;right=0;collapsible=0;dropTarget=0;fillColor=none;points=[[0,0.5],[1,0.5]];portConstraint=eastwest;fontSize=44;" vertex="1" parent="TzsYNP8NrKf-lR-TiJwy-14">
          <mxGeometry width="720" height="93" as="geometry" />
        </mxCell>
        <mxCell id="TzsYNP8NrKf-lR-TiJwy-16" value="" style="shape=partialRectangle;html=1;whiteSpace=wrap;connectable=0;fillColor=none;top=0;left=0;bottom=0;right=0;overflow=hidden;fontSize=44;" vertex="1" parent="TzsYNP8NrKf-lR-TiJwy-15">
          <mxGeometry width="240" height="93" as="geometry">
            <mxRectangle width="240" height="93" as="alternateBounds" />
          </mxGeometry>
        </mxCell>
        <mxCell id="TzsYNP8NrKf-lR-TiJwy-17" value="" style="shape=partialRectangle;html=1;whiteSpace=wrap;connectable=0;fillColor=none;top=0;left=0;bottom=0;right=0;overflow=hidden;fontSize=44;" vertex="1" parent="TzsYNP8NrKf-lR-TiJwy-15">
          <mxGeometry x="240" width="240" height="93" as="geometry">
            <mxRectangle width="240" height="93" as="alternateBounds" />
          </mxGeometry>
        </mxCell>
        <mxCell id="TzsYNP8NrKf-lR-TiJwy-18" value="" style="shape=partialRectangle;html=1;whiteSpace=wrap;connectable=0;fillColor=none;top=0;left=0;bottom=0;right=0;overflow=hidden;fontSize=44;" vertex="1" parent="TzsYNP8NrKf-lR-TiJwy-15">
          <mxGeometry x="480" width="240" height="93" as="geometry">
            <mxRectangle width="240" height="93" as="alternateBounds" />
          </mxGeometry>
        </mxCell>
        <mxCell id="TzsYNP8NrKf-lR-TiJwy-19" value="" style="shape=tableRow;horizontal=0;startSize=0;swimlaneHead=0;swimlaneBody=0;top=0;left=0;bottom=0;right=0;collapsible=0;dropTarget=0;fillColor=none;points=[[0,0.5],[1,0.5]];portConstraint=eastwest;fontSize=44;" vertex="1" parent="TzsYNP8NrKf-lR-TiJwy-14">
          <mxGeometry y="93" width="720" height="94" as="geometry" />
        </mxCell>
        <mxCell id="TzsYNP8NrKf-lR-TiJwy-20" value="" style="shape=partialRectangle;html=1;whiteSpace=wrap;connectable=0;fillColor=none;top=0;left=0;bottom=0;right=0;overflow=hidden;fontSize=44;" vertex="1" parent="TzsYNP8NrKf-lR-TiJwy-19">
          <mxGeometry width="240" height="94" as="geometry">
            <mxRectangle width="240" height="94" as="alternateBounds" />
          </mxGeometry>
        </mxCell>
        <mxCell id="TzsYNP8NrKf-lR-TiJwy-21" value="" style="shape=partialRectangle;html=1;whiteSpace=wrap;connectable=0;fillColor=none;top=0;left=0;bottom=0;right=0;overflow=hidden;fontSize=44;" vertex="1" parent="TzsYNP8NrKf-lR-TiJwy-19">
          <mxGeometry x="240" width="240" height="94" as="geometry">
            <mxRectangle width="240" height="94" as="alternateBounds" />
          </mxGeometry>
        </mxCell>
        <mxCell id="TzsYNP8NrKf-lR-TiJwy-22" value="" style="shape=partialRectangle;html=1;whiteSpace=wrap;connectable=0;fillColor=none;top=0;left=0;bottom=0;right=0;overflow=hidden;fontSize=44;" vertex="1" parent="TzsYNP8NrKf-lR-TiJwy-19">
          <mxGeometry x="480" width="240" height="94" as="geometry">
            <mxRectangle width="240" height="94" as="alternateBounds" />
          </mxGeometry>
        </mxCell>
        <mxCell id="TzsYNP8NrKf-lR-TiJwy-23" value="" style="shape=tableRow;horizontal=0;startSize=0;swimlaneHead=0;swimlaneBody=0;top=0;left=0;bottom=0;right=0;collapsible=0;dropTarget=0;fillColor=none;points=[[0,0.5],[1,0.5]];portConstraint=eastwest;fontSize=44;" vertex="1" parent="TzsYNP8NrKf-lR-TiJwy-14">
          <mxGeometry y="187" width="720" height="93" as="geometry" />
        </mxCell>
        <mxCell id="TzsYNP8NrKf-lR-TiJwy-24" value="" style="shape=partialRectangle;html=1;whiteSpace=wrap;connectable=0;fillColor=none;top=0;left=0;bottom=0;right=0;overflow=hidden;fontSize=44;" vertex="1" parent="TzsYNP8NrKf-lR-TiJwy-23">
          <mxGeometry width="240" height="93" as="geometry">
            <mxRectangle width="240" height="93" as="alternateBounds" />
          </mxGeometry>
        </mxCell>
        <mxCell id="TzsYNP8NrKf-lR-TiJwy-25" value="" style="shape=partialRectangle;html=1;whiteSpace=wrap;connectable=0;fillColor=none;top=0;left=0;bottom=0;right=0;overflow=hidden;fontSize=44;" vertex="1" parent="TzsYNP8NrKf-lR-TiJwy-23">
          <mxGeometry x="240" width="240" height="93" as="geometry">
            <mxRectangle width="240" height="93" as="alternateBounds" />
          </mxGeometry>
        </mxCell>
        <mxCell id="TzsYNP8NrKf-lR-TiJwy-26" value="" style="shape=partialRectangle;html=1;whiteSpace=wrap;connectable=0;fillColor=none;top=0;left=0;bottom=0;right=0;overflow=hidden;pointerEvents=1;fontSize=44;" vertex="1" parent="TzsYNP8NrKf-lR-TiJwy-23">
          <mxGeometry x="480" width="240" height="93" as="geometry">
            <mxRectangle width="240" height="93" as="alternateBounds" />
          </mxGeometry>
        </mxCell>
      </root>
    </mxGraphModel>
  </diagram>
  <diagram id="fcx5w3urKA7S-tlwd_RF" name="Page-8">
    <mxGraphModel dx="2957" dy="697" grid="1" gridSize="10" guides="1" tooltips="1" connect="1" arrows="1" fold="1" page="1" pageScale="1" pageWidth="827" pageHeight="1169" math="0" shadow="0">
      <root>
        <mxCell id="0" />
        <mxCell id="1" parent="0" />
        <mxCell id="MuZjvGSqo3pea7zuTkF1-1" value="" style="strokeWidth=1;shadow=0;dashed=0;align=center;html=1;shape=mxgraph.mockup.containers.browserWindow;rSize=0;strokeColor=#666666;strokeColor2=#008cff;strokeColor3=#c4c4c4;mainText=,;recursiveResize=0;fontSize=44;" vertex="1" parent="1">
          <mxGeometry x="-920" y="180" width="860" height="520" as="geometry" />
        </mxCell>
        <mxCell id="MuZjvGSqo3pea7zuTkF1-2" value="Page 1" style="strokeWidth=1;shadow=0;dashed=0;align=center;html=1;shape=mxgraph.mockup.containers.anchor;fontSize=17;fontColor=#666666;align=left;" vertex="1" parent="MuZjvGSqo3pea7zuTkF1-1">
          <mxGeometry x="60" y="12" width="110" height="26" as="geometry" />
        </mxCell>
        <mxCell id="MuZjvGSqo3pea7zuTkF1-3" value="http://localhost:44308/session" style="strokeWidth=1;shadow=0;dashed=0;align=center;html=1;shape=mxgraph.mockup.containers.anchor;rSize=0;fontSize=17;fontColor=#666666;align=left;" vertex="1" parent="MuZjvGSqo3pea7zuTkF1-1">
          <mxGeometry x="130" y="60" width="300" height="26" as="geometry" />
        </mxCell>
        <mxCell id="MuZjvGSqo3pea7zuTkF1-4" value="AMC" style="html=1;shadow=0;dashed=0;shape=mxgraph.bootstrap.rrect;rSize=5;fillColor=#0085FC;strokeColor=none;fontSize=14;fontColor=#ffffff;sketch=0;" vertex="1" parent="MuZjvGSqo3pea7zuTkF1-1">
          <mxGeometry x="23" y="130" width="70" height="40" as="geometry" />
        </mxCell>
        <mxCell id="MuZjvGSqo3pea7zuTkF1-5" value="Home" style="fillColor=none;strokeColor=none;fontSize=14;fontColor=#0085FC;" vertex="1" parent="MuZjvGSqo3pea7zuTkF1-1">
          <mxGeometry x="110" y="130" width="50" height="40" as="geometry" />
        </mxCell>
        <mxCell id="MuZjvGSqo3pea7zuTkF1-6" value="Session" style="fillColor=none;strokeColor=none;fontSize=14;fontColor=#0085FC;" vertex="1" parent="MuZjvGSqo3pea7zuTkF1-1">
          <mxGeometry x="170" y="130" width="50" height="40" as="geometry" />
        </mxCell>
        <mxCell id="MuZjvGSqo3pea7zuTkF1-7" value="Enroll" style="fillColor=none;strokeColor=none;fontSize=14;fontColor=#0085FC;" vertex="1" parent="MuZjvGSqo3pea7zuTkF1-1">
          <mxGeometry x="250" y="130" width="50" height="40" as="geometry" />
        </mxCell>
        <mxCell id="MuZjvGSqo3pea7zuTkF1-11" value="Logout" style="fillColor=none;strokeColor=none;fontSize=14;fontColor=#0085FC;" vertex="1" parent="MuZjvGSqo3pea7zuTkF1-1">
          <mxGeometry x="420" y="130" width="50" height="40" as="geometry" />
        </mxCell>
        <mxCell id="MuZjvGSqo3pea7zuTkF1-27" value="Feedback" style="fillColor=none;strokeColor=none;fontSize=14;fontColor=#0085FC;" vertex="1" parent="MuZjvGSqo3pea7zuTkF1-1">
          <mxGeometry x="330" y="130" width="50" height="40" as="geometry" />
        </mxCell>
        <mxCell id="MuZjvGSqo3pea7zuTkF1-12" value="" style="edgeStyle=orthogonalEdgeStyle;rounded=0;orthogonalLoop=1;jettySize=auto;html=1;fontSize=44;" edge="1" parent="1" source="MuZjvGSqo3pea7zuTkF1-13" target="MuZjvGSqo3pea7zuTkF1-1">
          <mxGeometry relative="1" as="geometry" />
        </mxCell>
        <mxCell id="MuZjvGSqo3pea7zuTkF1-13" value="&lt;font style=&quot;font-size: 44px&quot;&gt;User main Page&lt;/font&gt;" style="text;html=1;strokeColor=none;fillColor=none;align=center;verticalAlign=middle;whiteSpace=wrap;rounded=0;" vertex="1" parent="1">
          <mxGeometry x="-827" y="100" width="640" height="30" as="geometry" />
        </mxCell>
        <mxCell id="MuZjvGSqo3pea7zuTkF1-14" value="" style="shape=table;html=1;whiteSpace=wrap;startSize=0;container=1;collapsible=0;childLayout=tableLayout;fontSize=44;" vertex="1" parent="1">
          <mxGeometry x="-840" y="380" width="720" height="280" as="geometry" />
        </mxCell>
        <mxCell id="MuZjvGSqo3pea7zuTkF1-15" value="" style="shape=tableRow;horizontal=0;startSize=0;swimlaneHead=0;swimlaneBody=0;top=0;left=0;bottom=0;right=0;collapsible=0;dropTarget=0;fillColor=none;points=[[0,0.5],[1,0.5]];portConstraint=eastwest;fontSize=44;" vertex="1" parent="MuZjvGSqo3pea7zuTkF1-14">
          <mxGeometry width="720" height="93" as="geometry" />
        </mxCell>
        <mxCell id="MuZjvGSqo3pea7zuTkF1-16" value="" style="shape=partialRectangle;html=1;whiteSpace=wrap;connectable=0;fillColor=none;top=0;left=0;bottom=0;right=0;overflow=hidden;fontSize=44;" vertex="1" parent="MuZjvGSqo3pea7zuTkF1-15">
          <mxGeometry width="240" height="93" as="geometry">
            <mxRectangle width="240" height="93" as="alternateBounds" />
          </mxGeometry>
        </mxCell>
        <mxCell id="MuZjvGSqo3pea7zuTkF1-17" value="" style="shape=partialRectangle;html=1;whiteSpace=wrap;connectable=0;fillColor=none;top=0;left=0;bottom=0;right=0;overflow=hidden;fontSize=44;" vertex="1" parent="MuZjvGSqo3pea7zuTkF1-15">
          <mxGeometry x="240" width="240" height="93" as="geometry">
            <mxRectangle width="240" height="93" as="alternateBounds" />
          </mxGeometry>
        </mxCell>
        <mxCell id="MuZjvGSqo3pea7zuTkF1-18" value="" style="shape=partialRectangle;html=1;whiteSpace=wrap;connectable=0;fillColor=none;top=0;left=0;bottom=0;right=0;overflow=hidden;fontSize=44;" vertex="1" parent="MuZjvGSqo3pea7zuTkF1-15">
          <mxGeometry x="480" width="240" height="93" as="geometry">
            <mxRectangle width="240" height="93" as="alternateBounds" />
          </mxGeometry>
        </mxCell>
        <mxCell id="MuZjvGSqo3pea7zuTkF1-19" value="" style="shape=tableRow;horizontal=0;startSize=0;swimlaneHead=0;swimlaneBody=0;top=0;left=0;bottom=0;right=0;collapsible=0;dropTarget=0;fillColor=none;points=[[0,0.5],[1,0.5]];portConstraint=eastwest;fontSize=44;" vertex="1" parent="MuZjvGSqo3pea7zuTkF1-14">
          <mxGeometry y="93" width="720" height="94" as="geometry" />
        </mxCell>
        <mxCell id="MuZjvGSqo3pea7zuTkF1-20" value="" style="shape=partialRectangle;html=1;whiteSpace=wrap;connectable=0;fillColor=none;top=0;left=0;bottom=0;right=0;overflow=hidden;fontSize=44;" vertex="1" parent="MuZjvGSqo3pea7zuTkF1-19">
          <mxGeometry width="240" height="94" as="geometry">
            <mxRectangle width="240" height="94" as="alternateBounds" />
          </mxGeometry>
        </mxCell>
        <mxCell id="MuZjvGSqo3pea7zuTkF1-21" value="" style="shape=partialRectangle;html=1;whiteSpace=wrap;connectable=0;fillColor=none;top=0;left=0;bottom=0;right=0;overflow=hidden;fontSize=44;" vertex="1" parent="MuZjvGSqo3pea7zuTkF1-19">
          <mxGeometry x="240" width="240" height="94" as="geometry">
            <mxRectangle width="240" height="94" as="alternateBounds" />
          </mxGeometry>
        </mxCell>
        <mxCell id="MuZjvGSqo3pea7zuTkF1-22" value="" style="shape=partialRectangle;html=1;whiteSpace=wrap;connectable=0;fillColor=none;top=0;left=0;bottom=0;right=0;overflow=hidden;fontSize=44;" vertex="1" parent="MuZjvGSqo3pea7zuTkF1-19">
          <mxGeometry x="480" width="240" height="94" as="geometry">
            <mxRectangle width="240" height="94" as="alternateBounds" />
          </mxGeometry>
        </mxCell>
        <mxCell id="MuZjvGSqo3pea7zuTkF1-23" value="" style="shape=tableRow;horizontal=0;startSize=0;swimlaneHead=0;swimlaneBody=0;top=0;left=0;bottom=0;right=0;collapsible=0;dropTarget=0;fillColor=none;points=[[0,0.5],[1,0.5]];portConstraint=eastwest;fontSize=44;" vertex="1" parent="MuZjvGSqo3pea7zuTkF1-14">
          <mxGeometry y="187" width="720" height="93" as="geometry" />
        </mxCell>
        <mxCell id="MuZjvGSqo3pea7zuTkF1-24" value="" style="shape=partialRectangle;html=1;whiteSpace=wrap;connectable=0;fillColor=none;top=0;left=0;bottom=0;right=0;overflow=hidden;fontSize=44;" vertex="1" parent="MuZjvGSqo3pea7zuTkF1-23">
          <mxGeometry width="240" height="93" as="geometry">
            <mxRectangle width="240" height="93" as="alternateBounds" />
          </mxGeometry>
        </mxCell>
        <mxCell id="MuZjvGSqo3pea7zuTkF1-25" value="" style="shape=partialRectangle;html=1;whiteSpace=wrap;connectable=0;fillColor=none;top=0;left=0;bottom=0;right=0;overflow=hidden;fontSize=44;" vertex="1" parent="MuZjvGSqo3pea7zuTkF1-23">
          <mxGeometry x="240" width="240" height="93" as="geometry">
            <mxRectangle width="240" height="93" as="alternateBounds" />
          </mxGeometry>
        </mxCell>
        <mxCell id="MuZjvGSqo3pea7zuTkF1-26" value="" style="shape=partialRectangle;html=1;whiteSpace=wrap;connectable=0;fillColor=none;top=0;left=0;bottom=0;right=0;overflow=hidden;pointerEvents=1;fontSize=44;" vertex="1" parent="MuZjvGSqo3pea7zuTkF1-23">
          <mxGeometry x="480" width="240" height="93" as="geometry">
            <mxRectangle width="240" height="93" as="alternateBounds" />
          </mxGeometry>
        </mxCell>
      </root>
    </mxGraphModel>
  </diagram>
  <diagram id="AUzwfXNLPkJbUq9ZkqIp" name="Page-9">
    <mxGraphModel dx="2436" dy="418" grid="1" gridSize="10" guides="1" tooltips="1" connect="1" arrows="1" fold="1" page="1" pageScale="1" pageWidth="827" pageHeight="1169" math="0" shadow="0">
      <root>
        <mxCell id="0" />
        <mxCell id="1" parent="0" />
        <mxCell id="KXhknR_t00rymm2jepwn-1" value="" style="strokeWidth=1;shadow=0;dashed=0;align=center;html=1;shape=mxgraph.mockup.containers.browserWindow;rSize=0;strokeColor=#666666;strokeColor2=#008cff;strokeColor3=#c4c4c4;mainText=,;recursiveResize=0;fontSize=44;" vertex="1" parent="1">
          <mxGeometry x="-920" y="180" width="860" height="520" as="geometry" />
        </mxCell>
        <mxCell id="KXhknR_t00rymm2jepwn-2" value="Page 1" style="strokeWidth=1;shadow=0;dashed=0;align=center;html=1;shape=mxgraph.mockup.containers.anchor;fontSize=17;fontColor=#666666;align=left;" vertex="1" parent="KXhknR_t00rymm2jepwn-1">
          <mxGeometry x="60" y="12" width="110" height="26" as="geometry" />
        </mxCell>
        <mxCell id="KXhknR_t00rymm2jepwn-3" value="http://localhost:44308/Enroll" style="strokeWidth=1;shadow=0;dashed=0;align=center;html=1;shape=mxgraph.mockup.containers.anchor;rSize=0;fontSize=17;fontColor=#666666;align=left;" vertex="1" parent="KXhknR_t00rymm2jepwn-1">
          <mxGeometry x="130" y="60" width="300" height="26" as="geometry" />
        </mxCell>
        <mxCell id="KXhknR_t00rymm2jepwn-4" value="AMC" style="html=1;shadow=0;dashed=0;shape=mxgraph.bootstrap.rrect;rSize=5;fillColor=#0085FC;strokeColor=none;fontSize=14;fontColor=#ffffff;sketch=0;" vertex="1" parent="KXhknR_t00rymm2jepwn-1">
          <mxGeometry x="23" y="130" width="70" height="40" as="geometry" />
        </mxCell>
        <mxCell id="KXhknR_t00rymm2jepwn-5" value="Home" style="fillColor=none;strokeColor=none;fontSize=14;fontColor=#0085FC;" vertex="1" parent="KXhknR_t00rymm2jepwn-1">
          <mxGeometry x="110" y="130" width="50" height="40" as="geometry" />
        </mxCell>
        <mxCell id="KXhknR_t00rymm2jepwn-6" value="Session" style="fillColor=none;strokeColor=none;fontSize=14;fontColor=#0085FC;" vertex="1" parent="KXhknR_t00rymm2jepwn-1">
          <mxGeometry x="170" y="130" width="50" height="40" as="geometry" />
        </mxCell>
        <mxCell id="KXhknR_t00rymm2jepwn-7" value="Enroll" style="fillColor=none;strokeColor=none;fontSize=14;fontColor=#0085FC;" vertex="1" parent="KXhknR_t00rymm2jepwn-1">
          <mxGeometry x="250" y="130" width="50" height="40" as="geometry" />
        </mxCell>
        <mxCell id="KXhknR_t00rymm2jepwn-8" value="Logout" style="fillColor=none;strokeColor=none;fontSize=14;fontColor=#0085FC;" vertex="1" parent="KXhknR_t00rymm2jepwn-1">
          <mxGeometry x="420" y="130" width="50" height="40" as="geometry" />
        </mxCell>
        <mxCell id="KXhknR_t00rymm2jepwn-9" value="Feedback" style="fillColor=none;strokeColor=none;fontSize=14;fontColor=#0085FC;" vertex="1" parent="KXhknR_t00rymm2jepwn-1">
          <mxGeometry x="330" y="130" width="50" height="40" as="geometry" />
        </mxCell>
        <mxCell id="KXhknR_t00rymm2jepwn-10" value="" style="edgeStyle=orthogonalEdgeStyle;rounded=0;orthogonalLoop=1;jettySize=auto;html=1;fontSize=44;" edge="1" parent="1" source="KXhknR_t00rymm2jepwn-11" target="KXhknR_t00rymm2jepwn-1">
          <mxGeometry relative="1" as="geometry" />
        </mxCell>
        <mxCell id="KXhknR_t00rymm2jepwn-11" value="&lt;font style=&quot;font-size: 44px&quot;&gt;Enroll Page&lt;/font&gt;" style="text;html=1;strokeColor=none;fillColor=none;align=center;verticalAlign=middle;whiteSpace=wrap;rounded=0;" vertex="1" parent="1">
          <mxGeometry x="-827" y="100" width="640" height="30" as="geometry" />
        </mxCell>
        <mxCell id="KXhknR_t00rymm2jepwn-12" value="" style="shape=table;html=1;whiteSpace=wrap;startSize=0;container=1;collapsible=0;childLayout=tableLayout;fontSize=44;" vertex="1" parent="1">
          <mxGeometry x="-840" y="380" width="720" height="280" as="geometry" />
        </mxCell>
        <mxCell id="KXhknR_t00rymm2jepwn-13" value="" style="shape=tableRow;horizontal=0;startSize=0;swimlaneHead=0;swimlaneBody=0;top=0;left=0;bottom=0;right=0;collapsible=0;dropTarget=0;fillColor=none;points=[[0,0.5],[1,0.5]];portConstraint=eastwest;fontSize=44;" vertex="1" parent="KXhknR_t00rymm2jepwn-12">
          <mxGeometry width="720" height="93" as="geometry" />
        </mxCell>
        <mxCell id="KXhknR_t00rymm2jepwn-14" value="" style="shape=partialRectangle;html=1;whiteSpace=wrap;connectable=0;fillColor=none;top=0;left=0;bottom=0;right=0;overflow=hidden;fontSize=44;" vertex="1" parent="KXhknR_t00rymm2jepwn-13">
          <mxGeometry width="240" height="93" as="geometry">
            <mxRectangle width="240" height="93" as="alternateBounds" />
          </mxGeometry>
        </mxCell>
        <mxCell id="KXhknR_t00rymm2jepwn-15" value="" style="shape=partialRectangle;html=1;whiteSpace=wrap;connectable=0;fillColor=none;top=0;left=0;bottom=0;right=0;overflow=hidden;fontSize=44;" vertex="1" parent="KXhknR_t00rymm2jepwn-13">
          <mxGeometry x="240" width="240" height="93" as="geometry">
            <mxRectangle width="240" height="93" as="alternateBounds" />
          </mxGeometry>
        </mxCell>
        <mxCell id="KXhknR_t00rymm2jepwn-16" value="" style="shape=partialRectangle;html=1;whiteSpace=wrap;connectable=0;fillColor=none;top=0;left=0;bottom=0;right=0;overflow=hidden;fontSize=44;" vertex="1" parent="KXhknR_t00rymm2jepwn-13">
          <mxGeometry x="480" width="240" height="93" as="geometry">
            <mxRectangle width="240" height="93" as="alternateBounds" />
          </mxGeometry>
        </mxCell>
        <mxCell id="KXhknR_t00rymm2jepwn-17" value="" style="shape=tableRow;horizontal=0;startSize=0;swimlaneHead=0;swimlaneBody=0;top=0;left=0;bottom=0;right=0;collapsible=0;dropTarget=0;fillColor=none;points=[[0,0.5],[1,0.5]];portConstraint=eastwest;fontSize=44;" vertex="1" parent="KXhknR_t00rymm2jepwn-12">
          <mxGeometry y="93" width="720" height="94" as="geometry" />
        </mxCell>
        <mxCell id="KXhknR_t00rymm2jepwn-18" value="" style="shape=partialRectangle;html=1;whiteSpace=wrap;connectable=0;fillColor=none;top=0;left=0;bottom=0;right=0;overflow=hidden;fontSize=44;" vertex="1" parent="KXhknR_t00rymm2jepwn-17">
          <mxGeometry width="240" height="94" as="geometry">
            <mxRectangle width="240" height="94" as="alternateBounds" />
          </mxGeometry>
        </mxCell>
        <mxCell id="KXhknR_t00rymm2jepwn-19" value="" style="shape=partialRectangle;html=1;whiteSpace=wrap;connectable=0;fillColor=none;top=0;left=0;bottom=0;right=0;overflow=hidden;fontSize=44;" vertex="1" parent="KXhknR_t00rymm2jepwn-17">
          <mxGeometry x="240" width="240" height="94" as="geometry">
            <mxRectangle width="240" height="94" as="alternateBounds" />
          </mxGeometry>
        </mxCell>
        <mxCell id="KXhknR_t00rymm2jepwn-20" value="" style="shape=partialRectangle;html=1;whiteSpace=wrap;connectable=0;fillColor=none;top=0;left=0;bottom=0;right=0;overflow=hidden;fontSize=44;" vertex="1" parent="KXhknR_t00rymm2jepwn-17">
          <mxGeometry x="480" width="240" height="94" as="geometry">
            <mxRectangle width="240" height="94" as="alternateBounds" />
          </mxGeometry>
        </mxCell>
        <mxCell id="KXhknR_t00rymm2jepwn-21" value="" style="shape=tableRow;horizontal=0;startSize=0;swimlaneHead=0;swimlaneBody=0;top=0;left=0;bottom=0;right=0;collapsible=0;dropTarget=0;fillColor=none;points=[[0,0.5],[1,0.5]];portConstraint=eastwest;fontSize=44;" vertex="1" parent="KXhknR_t00rymm2jepwn-12">
          <mxGeometry y="187" width="720" height="93" as="geometry" />
        </mxCell>
        <mxCell id="KXhknR_t00rymm2jepwn-22" value="" style="shape=partialRectangle;html=1;whiteSpace=wrap;connectable=0;fillColor=none;top=0;left=0;bottom=0;right=0;overflow=hidden;fontSize=44;" vertex="1" parent="KXhknR_t00rymm2jepwn-21">
          <mxGeometry width="240" height="93" as="geometry">
            <mxRectangle width="240" height="93" as="alternateBounds" />
          </mxGeometry>
        </mxCell>
        <mxCell id="KXhknR_t00rymm2jepwn-23" value="" style="shape=partialRectangle;html=1;whiteSpace=wrap;connectable=0;fillColor=none;top=0;left=0;bottom=0;right=0;overflow=hidden;fontSize=44;" vertex="1" parent="KXhknR_t00rymm2jepwn-21">
          <mxGeometry x="240" width="240" height="93" as="geometry">
            <mxRectangle width="240" height="93" as="alternateBounds" />
          </mxGeometry>
        </mxCell>
        <mxCell id="KXhknR_t00rymm2jepwn-24" value="" style="shape=partialRectangle;html=1;whiteSpace=wrap;connectable=0;fillColor=none;top=0;left=0;bottom=0;right=0;overflow=hidden;pointerEvents=1;fontSize=44;" vertex="1" parent="KXhknR_t00rymm2jepwn-21">
          <mxGeometry x="480" width="240" height="93" as="geometry">
            <mxRectangle width="240" height="93" as="alternateBounds" />
          </mxGeometry>
        </mxCell>
      </root>
    </mxGraphModel>
  </diagram>
  <diagram id="eNat-H6ymXn6lQjla7Jd" name="Page-10">
    <mxGraphModel dx="2957" dy="697" grid="1" gridSize="10" guides="1" tooltips="1" connect="1" arrows="1" fold="1" page="1" pageScale="1" pageWidth="827" pageHeight="1169" math="0" shadow="0">
      <root>
        <mxCell id="0" />
        <mxCell id="1" parent="0" />
        <mxCell id="q0kRGyCg-e0u1tjhWaLx-1" value="" style="strokeWidth=1;shadow=0;dashed=0;align=center;html=1;shape=mxgraph.mockup.containers.browserWindow;rSize=0;strokeColor=#666666;strokeColor2=#008cff;strokeColor3=#c4c4c4;mainText=,;recursiveResize=0;fontSize=44;" vertex="1" parent="1">
          <mxGeometry x="-920" y="180" width="860" height="520" as="geometry" />
        </mxCell>
        <mxCell id="q0kRGyCg-e0u1tjhWaLx-2" value="Page 1" style="strokeWidth=1;shadow=0;dashed=0;align=center;html=1;shape=mxgraph.mockup.containers.anchor;fontSize=17;fontColor=#666666;align=left;" vertex="1" parent="q0kRGyCg-e0u1tjhWaLx-1">
          <mxGeometry x="60" y="12" width="110" height="26" as="geometry" />
        </mxCell>
        <mxCell id="q0kRGyCg-e0u1tjhWaLx-3" value="http://localhost:44308/Feedback" style="strokeWidth=1;shadow=0;dashed=0;align=center;html=1;shape=mxgraph.mockup.containers.anchor;rSize=0;fontSize=17;fontColor=#666666;align=left;" vertex="1" parent="q0kRGyCg-e0u1tjhWaLx-1">
          <mxGeometry x="130" y="60" width="300" height="26" as="geometry" />
        </mxCell>
        <mxCell id="q0kRGyCg-e0u1tjhWaLx-4" value="AMC" style="html=1;shadow=0;dashed=0;shape=mxgraph.bootstrap.rrect;rSize=5;fillColor=#0085FC;strokeColor=none;fontSize=14;fontColor=#ffffff;sketch=0;" vertex="1" parent="q0kRGyCg-e0u1tjhWaLx-1">
          <mxGeometry x="23" y="130" width="70" height="40" as="geometry" />
        </mxCell>
        <mxCell id="q0kRGyCg-e0u1tjhWaLx-5" value="Home" style="fillColor=none;strokeColor=none;fontSize=14;fontColor=#0085FC;" vertex="1" parent="q0kRGyCg-e0u1tjhWaLx-1">
          <mxGeometry x="110" y="130" width="50" height="40" as="geometry" />
        </mxCell>
        <mxCell id="q0kRGyCg-e0u1tjhWaLx-6" value="Session" style="fillColor=none;strokeColor=none;fontSize=14;fontColor=#0085FC;" vertex="1" parent="q0kRGyCg-e0u1tjhWaLx-1">
          <mxGeometry x="170" y="130" width="50" height="40" as="geometry" />
        </mxCell>
        <mxCell id="q0kRGyCg-e0u1tjhWaLx-7" value="Enroll" style="fillColor=none;strokeColor=none;fontSize=14;fontColor=#0085FC;" vertex="1" parent="q0kRGyCg-e0u1tjhWaLx-1">
          <mxGeometry x="250" y="130" width="50" height="40" as="geometry" />
        </mxCell>
        <mxCell id="q0kRGyCg-e0u1tjhWaLx-8" value="Logout" style="fillColor=none;strokeColor=none;fontSize=14;fontColor=#0085FC;" vertex="1" parent="q0kRGyCg-e0u1tjhWaLx-1">
          <mxGeometry x="420" y="130" width="50" height="40" as="geometry" />
        </mxCell>
        <mxCell id="q0kRGyCg-e0u1tjhWaLx-9" value="Feedback" style="fillColor=none;strokeColor=none;fontSize=14;fontColor=#0085FC;" vertex="1" parent="q0kRGyCg-e0u1tjhWaLx-1">
          <mxGeometry x="330" y="130" width="50" height="40" as="geometry" />
        </mxCell>
        <mxCell id="q0kRGyCg-e0u1tjhWaLx-10" value="" style="edgeStyle=orthogonalEdgeStyle;rounded=0;orthogonalLoop=1;jettySize=auto;html=1;fontSize=44;" edge="1" parent="1" source="q0kRGyCg-e0u1tjhWaLx-11" target="q0kRGyCg-e0u1tjhWaLx-1">
          <mxGeometry relative="1" as="geometry" />
        </mxCell>
        <mxCell id="q0kRGyCg-e0u1tjhWaLx-11" value="&lt;font style=&quot;font-size: 44px&quot;&gt;Feedback Page&lt;/font&gt;" style="text;html=1;strokeColor=none;fillColor=none;align=center;verticalAlign=middle;whiteSpace=wrap;rounded=0;" vertex="1" parent="1">
          <mxGeometry x="-827" y="100" width="640" height="30" as="geometry" />
        </mxCell>
        <mxCell id="q0kRGyCg-e0u1tjhWaLx-12" value="" style="shape=table;html=1;whiteSpace=wrap;startSize=0;container=1;collapsible=0;childLayout=tableLayout;fontSize=44;" vertex="1" parent="1">
          <mxGeometry x="-840" y="380" width="720" height="263" as="geometry" />
        </mxCell>
        <mxCell id="q0kRGyCg-e0u1tjhWaLx-13" value="" style="shape=tableRow;horizontal=0;startSize=0;swimlaneHead=0;swimlaneBody=0;top=0;left=0;bottom=0;right=0;collapsible=0;dropTarget=0;fillColor=none;points=[[0,0.5],[1,0.5]];portConstraint=eastwest;fontSize=44;" vertex="1" parent="q0kRGyCg-e0u1tjhWaLx-12">
          <mxGeometry width="720" height="93" as="geometry" />
        </mxCell>
        <mxCell id="q0kRGyCg-e0u1tjhWaLx-14" value="" style="shape=partialRectangle;html=1;whiteSpace=wrap;connectable=0;fillColor=none;top=0;left=0;bottom=0;right=0;overflow=hidden;fontSize=44;" vertex="1" parent="q0kRGyCg-e0u1tjhWaLx-13">
          <mxGeometry width="240" height="93" as="geometry">
            <mxRectangle width="240" height="93" as="alternateBounds" />
          </mxGeometry>
        </mxCell>
        <mxCell id="q0kRGyCg-e0u1tjhWaLx-15" value="" style="shape=partialRectangle;html=1;whiteSpace=wrap;connectable=0;fillColor=none;top=0;left=0;bottom=0;right=0;overflow=hidden;fontSize=44;" vertex="1" parent="q0kRGyCg-e0u1tjhWaLx-13">
          <mxGeometry x="240" width="240" height="93" as="geometry">
            <mxRectangle width="240" height="93" as="alternateBounds" />
          </mxGeometry>
        </mxCell>
        <mxCell id="q0kRGyCg-e0u1tjhWaLx-16" value="" style="shape=partialRectangle;html=1;whiteSpace=wrap;connectable=0;fillColor=none;top=0;left=0;bottom=0;right=0;overflow=hidden;fontSize=44;" vertex="1" parent="q0kRGyCg-e0u1tjhWaLx-13">
          <mxGeometry x="480" width="240" height="93" as="geometry">
            <mxRectangle width="240" height="93" as="alternateBounds" />
          </mxGeometry>
        </mxCell>
        <mxCell id="q0kRGyCg-e0u1tjhWaLx-17" value="" style="shape=tableRow;horizontal=0;startSize=0;swimlaneHead=0;swimlaneBody=0;top=0;left=0;bottom=0;right=0;collapsible=0;dropTarget=0;fillColor=none;points=[[0,0.5],[1,0.5]];portConstraint=eastwest;fontSize=44;" vertex="1" parent="q0kRGyCg-e0u1tjhWaLx-12">
          <mxGeometry y="93" width="720" height="77" as="geometry" />
        </mxCell>
        <mxCell id="q0kRGyCg-e0u1tjhWaLx-18" value="" style="shape=partialRectangle;html=1;whiteSpace=wrap;connectable=0;fillColor=none;top=0;left=0;bottom=0;right=0;overflow=hidden;fontSize=44;" vertex="1" parent="q0kRGyCg-e0u1tjhWaLx-17">
          <mxGeometry width="240" height="77" as="geometry">
            <mxRectangle width="240" height="77" as="alternateBounds" />
          </mxGeometry>
        </mxCell>
        <mxCell id="q0kRGyCg-e0u1tjhWaLx-19" value="" style="shape=partialRectangle;html=1;whiteSpace=wrap;connectable=0;fillColor=none;top=0;left=0;bottom=0;right=0;overflow=hidden;fontSize=44;" vertex="1" parent="q0kRGyCg-e0u1tjhWaLx-17">
          <mxGeometry x="240" width="240" height="77" as="geometry">
            <mxRectangle width="240" height="77" as="alternateBounds" />
          </mxGeometry>
        </mxCell>
        <mxCell id="q0kRGyCg-e0u1tjhWaLx-20" value="" style="shape=partialRectangle;html=1;whiteSpace=wrap;connectable=0;fillColor=none;top=0;left=0;bottom=0;right=0;overflow=hidden;fontSize=44;" vertex="1" parent="q0kRGyCg-e0u1tjhWaLx-17">
          <mxGeometry x="480" width="240" height="77" as="geometry">
            <mxRectangle width="240" height="77" as="alternateBounds" />
          </mxGeometry>
        </mxCell>
        <mxCell id="q0kRGyCg-e0u1tjhWaLx-21" value="" style="shape=tableRow;horizontal=0;startSize=0;swimlaneHead=0;swimlaneBody=0;top=0;left=0;bottom=0;right=0;collapsible=0;dropTarget=0;fillColor=none;points=[[0,0.5],[1,0.5]];portConstraint=eastwest;fontSize=44;" vertex="1" parent="q0kRGyCg-e0u1tjhWaLx-12">
          <mxGeometry y="170" width="720" height="93" as="geometry" />
        </mxCell>
        <mxCell id="q0kRGyCg-e0u1tjhWaLx-22" value="" style="shape=partialRectangle;html=1;whiteSpace=wrap;connectable=0;fillColor=none;top=0;left=0;bottom=0;right=0;overflow=hidden;fontSize=44;" vertex="1" parent="q0kRGyCg-e0u1tjhWaLx-21">
          <mxGeometry width="240" height="93" as="geometry">
            <mxRectangle width="240" height="93" as="alternateBounds" />
          </mxGeometry>
        </mxCell>
        <mxCell id="q0kRGyCg-e0u1tjhWaLx-23" value="" style="shape=partialRectangle;html=1;whiteSpace=wrap;connectable=0;fillColor=none;top=0;left=0;bottom=0;right=0;overflow=hidden;fontSize=44;" vertex="1" parent="q0kRGyCg-e0u1tjhWaLx-21">
          <mxGeometry x="240" width="240" height="93" as="geometry">
            <mxRectangle width="240" height="93" as="alternateBounds" />
          </mxGeometry>
        </mxCell>
        <mxCell id="q0kRGyCg-e0u1tjhWaLx-24" value="" style="shape=partialRectangle;html=1;whiteSpace=wrap;connectable=0;fillColor=none;top=0;left=0;bottom=0;right=0;overflow=hidden;pointerEvents=1;fontSize=44;" vertex="1" parent="q0kRGyCg-e0u1tjhWaLx-21">
          <mxGeometry x="480" width="240" height="93" as="geometry">
            <mxRectangle width="240" height="93" as="alternateBounds" />
          </mxGeometry>
        </mxCell>
      </root>
    </mxGraphModel>
  </diagram>
</mxfile>
